<svg width="145" height="156" viewBox="0 0 145 156" fill="none" xmlns="http://www.w3.org/2000/svg">
<path d="M118.559 67.6287C118.559 95.363 94.4452 117.904 64.6255 117.904C34.8057 117.904 10.6924 95.363 10.6924 67.6287C10.6924 39.8944 34.8057 17.3531 64.6255 17.3531C94.4452 17.3531 118.559 39.8944 118.559 67.6287Z" stroke="#292525" stroke-opacity="0.62"/>
<path d="M144.46 112.47C144.734 114.014 144.907 115.59 144.971 117.192L144.472 117.213C144.491 117.68 144.5 118.149 144.5 118.62C144.5 119.092 144.491 119.561 144.472 120.028L144.971 120.048C144.907 121.65 144.734 123.227 144.46 124.771L143.968 124.684C143.803 125.611 143.602 126.526 143.364 127.429L143.848 127.556C143.443 129.097 142.935 130.6 142.333 132.058L141.87 131.868C141.512 132.735 141.119 133.587 140.694 134.421L141.14 134.649C140.42 136.061 139.608 137.424 138.711 138.732L138.299 138.449C137.769 139.222 137.209 139.976 136.62 140.708L137.01 141.021C136.021 142.253 134.951 143.425 133.81 144.532L133.462 144.173C132.789 144.825 132.092 145.454 131.37 146.058L131.691 146.442C130.482 147.454 129.207 148.399 127.873 149.27L127.6 148.851C126.816 149.362 126.012 149.848 125.188 150.306L125.431 150.743C124.056 151.509 122.628 152.199 121.153 152.809L120.961 152.347C120.097 152.705 119.217 153.034 118.321 153.334L118.48 153.808C116.992 154.307 115.462 154.726 113.898 155.06L113.793 154.571C112.88 154.766 111.954 154.931 111.017 155.066L111.088 155.561C109.538 155.784 107.959 155.924 106.357 155.977L106.34 155.477C105.872 155.492 105.401 155.5 104.928 155.5C104.455 155.5 103.984 155.492 103.516 155.477L103.499 155.977C101.896 155.924 100.318 155.784 98.7678 155.561L98.8391 155.066C97.9023 154.931 96.9764 154.766 96.0625 154.571L95.9582 155.06C94.3938 154.726 92.8643 154.307 91.3756 153.808L91.5345 153.334C90.6391 153.034 89.7586 152.705 88.8945 152.347L88.7034 152.809C87.2283 152.199 85.8 151.509 84.425 150.743L84.6682 150.306C83.8443 149.848 83.0398 149.362 82.2562 148.851L81.9829 149.27C80.6486 148.399 79.3737 147.454 78.1651 146.442L78.4862 146.058C77.7644 145.454 77.0667 144.825 76.3944 144.173L76.0464 144.532C74.9047 143.425 73.8354 142.253 72.8458 141.021L73.2355 140.708C72.6469 139.976 72.0868 139.222 71.5569 138.449L71.1445 138.732C70.2478 137.424 69.4361 136.061 68.7164 134.649L69.1619 134.422C68.7366 133.587 68.344 132.735 67.9855 131.868L67.5234 132.058C66.9207 130.6 66.4132 129.097 66.0081 127.556L66.4917 127.429C66.2544 126.526 66.0527 125.611 65.8881 124.684L65.3958 124.771C65.1218 123.227 64.9492 121.65 64.8847 120.048L65.3843 120.028C65.3654 119.561 65.356 119.092 65.356 118.62C65.356 118.149 65.3654 117.68 65.3843 117.213L64.8847 117.192C64.9492 115.59 65.1218 114.014 65.3958 112.47L65.8881 112.557C66.0527 111.63 66.2544 110.715 66.4917 109.812L66.0081 109.685C66.4132 108.144 66.9207 106.641 67.5234 105.182L67.9855 105.373C68.344 104.506 68.7366 103.654 69.1619 102.819L68.7164 102.592C69.4361 101.18 70.2478 99.8168 71.1445 98.5089L71.5569 98.7917C72.0868 98.0187 72.6469 97.2653 73.2355 96.5329L72.8458 96.2197C73.8354 94.9883 74.9047 93.8158 76.0464 92.7088L76.3944 93.0678C77.0667 92.416 77.7644 91.7871 78.4862 91.1825L78.1651 90.7992C79.3737 89.787 80.6486 88.8422 81.9829 87.9714L82.2562 88.3901C83.0398 87.8787 83.8443 87.393 84.6682 86.9345L84.425 86.4976C85.8 85.7323 87.2283 85.0416 88.7034 84.4316L88.8945 84.8937C89.7586 84.5363 90.6391 84.207 91.5345 83.9069L91.3756 83.4328C92.8643 82.9338 94.3938 82.5147 95.9582 82.181L96.0626 82.67C96.9764 82.4751 97.9023 82.3096 98.8391 82.1748L98.7678 81.6799C100.318 81.4569 101.896 81.3167 103.499 81.2643L103.516 81.764C103.984 81.7487 104.455 81.741 104.928 81.741C105.401 81.741 105.872 81.7487 106.34 81.764L106.357 81.2643C107.959 81.3167 109.538 81.4569 111.088 81.6799L111.017 82.1748C111.954 82.3096 112.88 82.4751 113.793 82.67L113.898 82.181C115.462 82.5147 116.992 82.9338 118.48 83.4328L118.321 83.9069C119.217 84.207 120.097 84.5363 120.961 84.8937L121.153 84.4316C122.628 85.0416 124.056 85.7323 125.431 86.4976L125.188 86.9345C126.012 87.393 126.816 87.8787 127.6 88.3901L127.873 87.9714C129.207 88.8422 130.482 89.787 131.691 90.7992L131.37 91.1825C132.092 91.7871 132.789 92.416 133.462 93.0678L133.81 92.7088C134.951 93.8158 136.021 94.9883 137.01 96.2197L136.62 96.5329C137.209 97.2653 137.769 98.0187 138.299 98.7916L138.711 98.5089C139.608 99.8168 140.42 101.18 141.14 102.592L140.694 102.819C141.119 103.654 141.512 104.506 141.87 105.373L142.333 105.182C142.935 106.641 143.443 108.144 143.848 109.685L143.364 109.812C143.602 110.715 143.803 111.63 143.968 112.557L144.46 112.47Z" stroke="#292525" stroke-dasharray="3 5"/>
<path d="M55.5545 26.144C55.5545 40.2747 43.2635 51.7881 28.0273 51.7881C12.791 51.7881 0.5 40.2747 0.5 26.144C0.5 12.0134 12.791 0.5 28.0273 0.5C43.2635 0.5 55.5545 12.0134 55.5545 26.144Z" stroke="#292525" stroke-opacity="0.62"/>
</svg>
