<svg width="83" height="255" viewBox="0 0 83 255" fill="none" xmlns="http://www.w3.org/2000/svg">
<line y1="-0.5" x2="254" y2="-0.5" transform="matrix(0 -1 0.999982 -0.00604384 44.2041 254)" stroke="#292525" stroke-dasharray="3 3"/>
<line x1="47.0386" y1="254.304" x2="34.0002" y2="254.304" stroke="#292525"/>
<line x1="50.0576" y1="0.519775" x2="37.0192" y2="0.519775" stroke="#292525"/>
<path d="M12.4293 136.894L8.60938 135.935L8.73106 135.451L8.69048 135.44L8.72167 135.412L8.38843 135.04L11.3245 132.415L11.6578 132.788L13.1258 131.475L12.7926 131.102L15.7287 128.478L16.062 128.85L17.53 127.538L17.1968 127.165L20.1329 124.54L20.4662 124.913L21.9342 123.601L21.601 123.228L24.5371 120.603L24.8703 120.976L26.3384 119.664L26.0052 119.291L28.9413 116.666L29.2745 117.039L30.7426 115.726L30.4093 115.354L33.3455 112.729L33.6787 113.101L35.1468 111.789L34.8135 111.416L37.7496 108.791L38.0829 109.164L39.5509 107.852L39.2177 107.479L42.1538 104.854L42.4871 105.227L43.9551 103.915L43.6219 103.542L46.558 100.917L46.8912 101.29L48.3593 99.9774L48.0261 99.6046L50.9622 96.9798L51.2954 97.3526L51.4098 97.2503L51.4563 97.4387L51.9417 97.3189L52.9238 101.3L52.4383 101.42L52.9293 103.411L53.4148 103.291L54.3968 107.272L53.9114 107.392L54.4024 109.383L54.8878 109.263L55.8699 113.244L55.3844 113.364L55.8754 115.355L56.3609 115.235L57.3429 119.216L56.8575 119.336L57.3485 121.327L57.8339 121.207L58.816 125.188L58.3305 125.308L58.8215 127.299L59.307 127.179L60.289 131.16L59.8036 131.28L60.2946 133.27L60.78 133.151L61.7621 137.132L61.2766 137.252L61.7676 139.242L62.2531 139.123L63.2351 143.104L62.7497 143.224L63.2407 145.214L63.7261 145.095L64.7082 149.076L64.2227 149.196L64.2692 149.384L64.1204 149.347L63.9987 149.832L60.1787 148.873L60.3004 148.388L58.3904 147.909L58.2688 148.394L54.4488 147.436L54.5705 146.951L52.6605 146.472L52.5388 146.957L48.7189 145.998L48.8406 145.513L46.9306 145.034L46.8089 145.519L42.989 144.561L43.1106 144.076L41.2006 143.597L41.079 144.082L37.259 143.123L37.3807 142.638L35.4707 142.159L35.349 142.644L31.5291 141.686L31.6508 141.201L29.7408 140.722L29.6191 141.206L25.7992 140.248L25.9208 139.763L24.0109 139.284L23.8892 139.769L20.0692 138.811L20.1909 138.326L18.2809 137.846L18.1593 138.331L14.3393 137.373L14.461 136.888L12.551 136.409L12.4293 136.894Z" stroke="#292525" stroke-dasharray="2 4"/>
</svg>
