<svg width="490" height="366" viewBox="0 0 490 366" fill="none" xmlns="http://www.w3.org/2000/svg">
<line y1="-0.5" x2="308" y2="-0.5" transform="matrix(0 -1 0.999977 -0.00676907 315.895 308)" stroke="#292525" stroke-dasharray="3 3"/>
<line x1="318.729" y1="308.263" x2="305.691" y2="308.263" stroke="#292525"/>
<line x1="321.748" y1="0.523804" x2="308.71" y2="0.523804" stroke="#292525"/>
<path d="M83.8146 227.636L80.0093 228.773L79.8662 228.294L79.6354 228.362L79.6612 228.123L79.164 228.07L79.5883 224.121L80.0854 224.174L80.2975 222.2L79.8004 222.147L80.2246 218.198L80.7218 218.251L80.9339 216.277L80.4367 216.224L80.861 212.275L81.3581 212.328L81.5702 210.354L81.0731 210.301L81.4973 206.352L81.9945 206.405L82.2066 204.431L81.7095 204.377L82.1337 200.429L82.6308 200.482L82.843 198.508L82.3458 198.454L82.7701 194.506L83.2672 194.559L83.4793 192.585L82.9822 192.531L83.4064 188.583L83.9036 188.636L84.1157 186.662L83.6185 186.608L84.0428 182.66L84.5399 182.713L84.752 180.739L84.2549 180.685L84.6792 176.737L85.1763 176.79L85.3884 174.816L84.8913 174.762L85.3155 170.814L85.8127 170.867L86.0248 168.893L85.5276 168.839L85.9519 164.891L86.449 164.944L86.6611 162.97L86.164 162.916L86.5882 158.968L87.0854 159.021L87.2975 157.047L86.8004 156.993L87.2246 153.045L87.7217 153.098L87.9339 151.124L87.4367 151.07L87.861 147.122L88.3581 147.175L88.5702 145.201L88.0731 145.147L88.4973 141.199L88.9945 141.252L89.2066 139.278L88.7094 139.224L89.1337 135.276L89.6308 135.329L89.8429 133.355L89.3458 133.301L89.77 129.352L90.2672 129.406L90.4793 127.432L89.9822 127.378L90.4064 123.429L90.9035 123.483L91.1157 121.509L90.6185 121.455L91.0428 117.506L91.5399 117.56L91.752 115.586L91.2549 115.532L91.6791 111.583L92.1763 111.637L92.3884 109.662L91.8913 109.609L92.3155 105.66L92.8126 105.714L93.0248 103.739L92.5276 103.686L92.9519 99.7374L93.449 99.7908L93.6611 97.8164L93.164 97.763L93.5882 93.8143L94.0854 93.8677L94.2975 91.8934L93.8003 91.84L94.2246 87.8913L94.7217 87.9447L94.9338 85.9704L94.4367 85.917L94.8609 81.9683L95.3581 82.0217L95.5702 80.0473L95.0731 79.9939L95.4973 76.0452L95.9945 76.0986L96.2066 74.1243L95.7094 74.0709L96.1337 70.1222L96.6308 70.1756L96.6372 70.116L96.6807 70.1522L97.0005 69.7678L100.043 72.2986L99.7237 72.683L101.245 73.9485L101.565 73.5641L104.608 76.0949L104.288 76.4794L105.81 77.7448L106.129 77.3604L109.172 79.8913L108.853 80.2757L110.374 81.5411L110.694 81.1567L113.737 83.6876L113.417 84.072L114.938 85.3374L115.258 84.953L118.301 87.4839L117.981 87.8683L119.503 89.1338L119.823 88.7493L122.865 91.2802L122.546 91.6646L124.067 92.9301L124.387 92.5457L127.43 95.0765L127.11 95.4609L128.632 96.7264L128.951 96.342L131.994 98.8728L131.675 99.2573L133.196 100.523L133.516 100.138L136.559 102.669L136.239 103.054L137.76 104.319L138.08 103.935L141.123 106.465L140.803 106.85L142.325 108.115L142.645 107.731L145.688 110.262L145.368 110.646L146.889 111.912L147.209 111.527L150.252 114.058L149.932 114.443L151.454 115.708L151.773 115.324L154.816 117.854L154.497 118.239L156.018 119.504L156.338 119.12L159.381 121.651L159.061 122.035L160.583 123.301L160.902 122.916L163.945 125.447L163.626 125.831L165.147 127.097L165.467 126.712L168.51 129.243L168.19 129.628L169.711 130.893L170.031 130.509L173.074 133.04L172.754 133.424L174.276 134.69L174.596 134.305L177.638 136.836L177.319 137.22L178.84 138.486L179.16 138.101L182.203 140.632L181.883 141.017L183.405 142.282L183.724 141.898L186.767 144.429L186.448 144.813L187.969 146.078L188.289 145.694L191.332 148.225L191.012 148.609L192.533 149.875L192.853 149.49L195.896 152.021L195.576 152.406L197.098 153.671L197.418 153.287L200.461 155.818L200.141 156.202L201.662 157.467L201.982 157.083L205.025 159.614L204.705 159.998L206.227 161.264L206.546 160.879L209.589 163.41L209.27 163.795L210.791 165.06L211.111 164.676L214.154 167.207L213.834 167.591L215.356 168.856L215.675 168.472L218.718 171.003L218.399 171.387L219.92 172.653L220.24 172.268L223.283 174.799L222.963 175.184L224.484 176.449L224.804 176.065L227.847 178.595L227.527 178.98L229.049 180.245L229.369 179.861L232.411 182.392L232.092 182.776L232.135 182.812L232.078 182.83L232.221 183.309L228.416 184.445L228.272 183.966L226.37 184.534L226.513 185.014L222.708 186.15L222.565 185.671L220.662 186.239L220.805 186.718L217 187.855L216.857 187.376L214.954 187.944L215.097 188.423L211.292 189.56L211.149 189.081L209.246 189.649L209.389 190.128L205.584 191.265L205.441 190.786L203.538 191.354L203.681 191.833L199.876 192.97L199.733 192.491L197.83 193.059L197.973 193.538L194.168 194.675L194.025 194.196L192.122 194.764L192.265 195.243L188.46 196.38L188.317 195.9L186.414 196.469L186.557 196.948L182.752 198.084L182.609 197.605L180.706 198.174L180.849 198.653L177.044 199.789L176.901 199.31L174.998 199.879L175.142 200.358L171.336 201.494L171.193 201.015L169.291 201.583L169.434 202.063L165.628 203.199L165.485 202.72L163.583 203.288L163.726 203.767L159.92 204.904L159.777 204.425L157.875 204.993L158.018 205.472L154.212 206.609L154.069 206.13L152.167 206.698L152.31 207.177L148.505 208.314L148.361 207.835L146.459 208.403L146.602 208.882L142.797 210.019L142.653 209.54L140.751 210.108L140.894 210.587L137.089 211.724L136.946 211.245L135.043 211.813L135.186 212.292L131.381 213.429L131.238 212.949L129.335 213.518L129.478 213.997L125.673 215.133L125.53 214.654L123.627 215.223L123.77 215.702L119.965 216.838L119.822 216.359L117.919 216.928L118.062 217.407L114.257 218.543L114.114 218.064L112.211 218.632L112.354 219.112L108.549 220.248L108.406 219.769L106.503 220.337L106.646 220.816L102.841 221.953L102.698 221.474L100.795 222.042L100.938 222.521L97.1331 223.658L96.99 223.179L95.0873 223.747L95.2304 224.226L91.4251 225.363L91.2821 224.884L89.3794 225.452L89.5225 225.931L85.7172 227.068L85.5741 226.589L83.6715 227.157L83.8146 227.636Z" stroke="#292525" stroke-dasharray="2 4"/>
<path d="M475.734 259.457L428.25 361.038L370.79 264.748L475.734 259.457Z" stroke="#292525" stroke-opacity="0.65"/>
</svg>
