<?xml version="1.0"?>
<svg xmlns:rdf="http://www.w3.org/1999/02/22-rdf-syntax-ns#" xmlns="http://www.w3.org/2000/svg" xmlns:cc="http://creativecommons.org/ns#" xmlns:dc="http://purl.org/dc/elements/1.1/" xmlns:svg="http://www.w3.org/2000/svg" id="svg2" viewBox="0 0 131.74 311" version="1.0">
  <path id="path2311" d="m57.989 308.69c-3.353-1.26-6.424-2.29-6.823-2.3s-0.726-0.24-0.726-0.51c0-0.61 6.314 1.12 9.582 2.61 2.02 0.93 4.139 1.08 16.26 1.17 7.666 0.06 14.876-0.02 16.022-0.19l2.085-0.29 0.032-3.41c0.021-2.25-0.245-3.65-0.778-4.09-0.486-0.4-0.81-1.78-0.81-3.45v-2.78l-5.662-0.38c-7.945-0.55-7.991-0.85-0.116-0.77 4.062 0.04 7.154-0.19 7.84-0.59 0.939-0.54 0.562-0.66-2.207-0.67-2.552-0.01-3.614-0.29-4.504-1.18-1.058-1.06-1.707-1.14-7.114-0.87-5.486 0.28-5.791 0.24-3.917-0.5 1.297-0.51 2.282-0.6 2.721-0.26 0.49 0.39 0.857-0.07 1.278-1.59 0.325-1.18 1.036-2.63 1.58-3.24 0.886-0.97 0.892-1.09 0.058-1.09-1.322 0-3.684-3.32-5.657-7.94-0.93-2.18-1.697-3.48-1.706-2.89-0.026 1.8 1.741 8 2.954 10.38 1.775 3.48 2.302 5.1 1.662 5.1-0.312 0-0.585-0.46-0.608-1.02-0.035-0.89-0.095-0.88-0.479 0.1-0.407 1.04-0.466 1.05-0.83 0.1-0.216-0.56-0.396-1.72-0.401-2.57s-0.218-1.88-0.473-2.28-0.35 0.84-0.211 2.76c0.159 2.21 0.028 3.49-0.357 3.49-0.362 0-0.7-2.07-0.832-5.08-0.123-2.8-0.542-7.18-0.933-9.73-1.193-7.82-2.89-20.31-4.454-32.81-0.819-6.55-1.753-13.08-2.074-14.52-0.625-2.79-4.149-9.17-4.494-8.14-0.113 0.34 0.327 2.37 0.977 4.52 2.826 9.34 6.89 30.5 6.349 33.05-0.123 0.58-0.928-2.99-1.788-7.94-1.5-8.64-1.651-7.63-0.439 2.9 0.312 2.72 0.842 9.38 1.177 14.81 1.034 16.77 1.798 23.02 2.794 22.82 1.331-0.26 1.361-2.9 0.141-12.37-1.341-10.4-1.99-19.03-1.203-15.97 0.288 1.12 0.695 3.99 0.905 6.39s0.75 6.9 1.201 10.01c0.451 3.12 0.819 7.19 0.819 9.06v3.4l-7.51 0.38c-7.692 0.39-10.226 0.01-10.859-1.64-0.23-0.6-1.141-0.88-2.842-0.88-3.57 0-4.34-0.44-4.34-2.45v-1.74l-4.211 0.42c-2.315 0.22-4.566 0.6-5.001 0.84-1.08 0.59 8.245 4.12 17.051 6.45 3.833 1.02 7.426 1.98 7.985 2.13 0.559 0.16 1.017 0.52 1.017 0.8 0 0.67-1.355 0.66-2.062-0.01-0.303-0.29-2.904-1.11-5.778-1.82-5.714-1.41-9.552-2.61-15.496-4.86-3.544-1.34-3.904-1.38-4.143-0.47-0.144 0.55-0.292 0.15-0.329-0.88-0.076-2.13 0.045-2.19 6.611-3.01 5.245-0.66 6.968-1.37 8.207-3.36 0.555-0.9 1.449-2.15 1.988-2.79 0.634-0.75 1.102-2.7 1.327-5.51 0.305-3.83-0.813-31.3-1.631-40.07-0.19-2.04-0.118-2.78 0.2-2.04 0.644 1.51 1.687 16.53 2.416 34.81 0.317 7.96 0.721 14.62 0.897 14.8 0.177 0.17 0.182-3.34 0.012-7.8-0.22-5.78-0.15-7.45 0.242-5.8 0.303 1.28 0.503 7.16 0.443 13.06l-0.108 10.75h5.752l-0.107-17.04c-0.059-9.5-0.502-21.57-1-27.29-0.491-5.65-1.185-14.57-1.543-19.84-0.357-5.27-0.864-10.37-1.125-11.33-0.73-2.67-0.698 9.05 0.064 23.52 0.448 8.52 0.476 14.24 0.086 18.01-0.537 5.19-0.578 4.75-0.695-7.55-0.068-7.19-0.218-13.57-0.332-14.17-0.114-0.61-0.38-8.43-0.59-17.39-0.211-8.95-0.604-16.85-0.873-17.56s-0.31-1.5-0.091-1.76c0.219-0.27-0.059-0.13-0.618 0.3-1.138 0.87-1.389 1.51-0.337 0.86 0.488-0.3 0.535-0.1 0.166 0.69-0.654 1.42-0.667 4.05-0.079 16.07 0.304 6.22 0.273 9.73-0.088 9.73-0.333 0-0.597-3.27-0.646-7.99-0.046-4.39-0.36-9.03-0.698-10.31-1.284-4.85-1.28-6.69 0.019-8.45 1.138-1.54 1.228-2.4 1.237-11.7 0.005-5.53 0.26-10.44 0.568-10.91 0.368-0.58 0.455 1.41 0.253 5.8l-0.306 6.68 1.137-2.03c2.111-3.77 4.017-4.94 12.672-7.77 4.529-1.47 8.906-2.68 9.727-2.68 0.82 0 1.492-0.11 1.492-0.23 0-0.13 0.388-2.28 0.862-4.79 0.475-2.51 1.082-6.18 1.351-8.16l0.488-3.59-1.676 0.87c-1.045 0.54-2.102 1.86-2.807 3.5-0.833 1.95-1.374 2.55-2.046 2.29-0.502-0.19-1.023-0.35-1.156-0.35-0.134 0-0.243-0.49-0.243-1.09s-0.392-1.41-0.871-1.81c-1.184-0.98-1.102-1.47 0.504-3.03 0.852-0.82 1.594-2.49 1.951-4.39l0.577-3.06-1.35 0.88c-3.953 2.59-4.054-0.05-0.333-8.69 2.043-4.75 3.834-7.08 6.995-9.08 3.468-2.2 4.706-5.58 4.653-12.7-0.02-2.72 0.129-5.99 0.333-7.26 0.303-1.91-0.181-1.24-2.723 3.77-3.331 6.57-4.31 8.23-11.149 18.87-2.461 3.83-5.295 8.5-6.297 10.38s-1.908 3.17-2.012 2.85c-0.258-0.77 3.739-7.77 9.023-15.8 5.132-7.8 8.392-13.44 7.996-13.84-0.155-0.15-1.011 0.94-1.902 2.42-0.891 1.49-4.032 6.37-6.979 10.85-5.217 7.93-11.597 20.17-15.109 28.99-0.954 2.4-2.589 7.88-3.632 12.2-1.043 4.31-2.776 10.81-3.852 14.44-1.6 5.41-1.954 7.57-1.948 11.91 0.009 5.93 0.439 8.47 1.226 7.23 0.27-0.43 0.495-1.46 0.5-2.3s0.401-1.85 0.88-2.25c0.549-0.45 0.871-0.49 0.871-0.1 0 0.34-0.262 0.78-0.581 0.97-0.319 0.2-0.564 0.8-0.544 1.34 0.027 0.72 0.182 0.63 0.562-0.32 0.741-1.85 1.358-1.63 0.829 0.29-0.242 0.88-0.381 6.17-0.31 11.75 0.071 5.59-0.008 10.02-0.175 9.86-0.167-0.17-0.347-3.24-0.4-6.82s-0.271-6.52-0.485-6.52c-0.213 0-0.842-0.76-1.396-1.7-1.299-2.2-2.063-8.52-2.389-19.78-0.211-7.29-0.489-9.58-1.461-12.06-1.498-3.81-1.509-5.72-0.051-8.93 0.632-1.39 1.155-3.25 1.162-4.12 0.013-1.72-0.889-6.08-1.836-8.86-1.158-3.41-1.138-4.2 0.182-7.01 2.199-4.67 0.912-9.51-2.942-11.05-1.366-0.55-2.889-1.81-3.842-3.18-0.869-1.26-1.613-2.28-1.653-2.28s-2.486 0.61-5.435 1.35l-5.363 1.36-5.398 5.68c-5.26 5.54-5.496 5.71-9.149 6.51-2.063 0.46-5.6885 1.09-8.057 1.41-5.0244 0.68-5.7654 0.29-6.2503-3.33-0.28375-2.11-0.12414-2.43 2.2832-4.58 1.4236-1.27 4.0617-3.48 5.8626-4.92 1.8005-1.44 3.2785-2.87 3.2835-3.19 0.006-0.32 0.912-1.72 2.015-3.11 1.102-1.38 2.164-3.02 2.359-3.64 0.392-1.23 4.227-3.42 6.002-3.42 0.623 0 2.397-0.98 3.943-2.18 1.546-1.21 3.542-2.51 4.435-2.91 1.793-0.79 6.435-0.89 8.248-0.18 0.874 0.35 1.808-0.05 3.775-1.6 1.437-1.14 2.797-2.21 3.021-2.39s0.576-3.46 0.781-7.29c0.333-6.22 2.64-18.141 5.415-27.975 0.299-1.058 0.308-2.985 0.022-4.516-0.446-2.387-0.323-2.96 1.158-5.413 0.911-1.509 2.253-4.573 2.982-6.809 2.111-6.478 5.807-10.861 14.205-16.845 2.555-1.821 4.62-3.544 4.588-3.831-0.032-0.286-0.097-0.778-0.145-1.093-0.054-0.356-1.72-0.436-4.39-0.21l-4.303 0.364-2.23-3.571c-1.227-1.964-2.538-3.453-2.914-3.309-1.163 0.445-1.804-0.953-2.508-5.477-0.373-2.395-0.865-5.531-1.092-6.969-0.228-1.437-0.829-3.441-1.336-4.453-0.89-1.774-0.856-1.986 0.969-5.989 1.26-2.764 2.814-5.0083 4.658-6.7253 1.522-1.4173 2.951-2.5768 3.177-2.5768 0.225 0 1.169-0.6538 2.097-1.4529 2.736-2.3556 4.706-2.7315 10.961-2.0915 3.695 0.37802 6.54 1.0262 8.331 1.8983 1.496 0.7284 3.214 1.2435 3.817 1.1448 0.603-0.0988 1.256 0.0389 1.451 0.306 0.451 0.6152 2.294 1.7736 3.986 2.5052 0.718 0.3107 1.306 0.9229 1.306 1.3604s0.506 1.2533 1.124 1.8129c0.765 0.6916 1.115 1.7509 1.093 3.3069-0.026 1.904-0.365 2.544-2.012 3.8-1.089 0.83-2.583 2.715-3.321 4.187-0.737 1.472-1.959 3.754-2.714 5.07-1.258 2.19-1.311 2.584-0.628 4.652 0.41 1.244 1.459 3.134 2.33 4.202l1.584 1.941 2.869-1.007c6.728-2.361 15.458-0.814 19.708 3.494 2.99 3.039 5.54 8.22 6.09 12.394 0.24 1.81 1.55 6.295 2.91 9.968 3.72 10.049 3.9 11.01 4.31 23.427 0.21 6.327 0.76 14.555 1.23 18.28 0.56 4.53 0.84 12.4 0.85 23.64 0 15.34-0.09 16.94-1.01 17.73-0.56 0.47-2.98 2.16-5.38 3.74-2.39 1.58-5.09 3.46-5.99 4.19-0.91 0.73-2.12 1.33-2.69 1.33-0.89 0-1.12 0.7-1.46 4.5-0.23 2.47-0.8 6.72-1.27 9.44-0.69 4-0.74 6.41-0.26 12.77 0.33 4.31 0.73 10.06 0.89 12.78 0.17 2.71 0.69 6.24 1.18 7.84 1.21 4 1.12 5.25-0.51 6.53-1.69 1.34-4.99 8.38-4.99 10.67 0 0.91-0.47 2.91-1.05 4.43-0.93 2.45-0.96 3.11-0.3 5.67 0.41 1.59 1.3 6.03 1.97 9.86 0.67 3.84 1.96 9.98 2.87 13.65s2.43 9.84 3.39 13.71c1.12 4.57 2.89 9.55 5.05 14.21l3.32 7.17-1.94 1.62c-1.07 0.89-2.14 1.62-2.39 1.62-0.26 0-0.46 0.62-0.46 1.38s-0.38 2.45-0.85 3.77l-0.84 2.4h2.58c1.43 0 2.59 0.26 2.59 0.58s0.77 0.58 1.71 0.58c0.97 0 2.42 0.61 3.34 1.4 1.57 1.35 1.59 1.43 0.57 2.55-0.59 0.65-2.19 1.33-3.67 1.55-1.45 0.22-3.07 0.49-3.6 0.61-0.53 0.11-3.84 0.75-7.35 1.42-11.33 2.13-15.04 2.9-18.273 3.79-2.452 0.68-6.556 0.87-18.003 0.85l-14.827-0.02-6.098-2.29zm41.127-8.26c-0.105-7.74-0.322-6.81-0.611 2.61-0.085 2.8 0.041 5.08 0.28 5.08 0.24 0 0.389-3.46 0.331-7.69zm1.774-0.69c0.11-4.93-0.04-7.3-0.46-7.3s-0.628 2.55-0.628 7.59c0 4.17 0.208 7.45 0.458 7.29 0.26-0.15 0.54-3.57 0.63-7.58zm3.05-0.21c0.03-3.74 0.03-6.99 0-7.23-0.04-0.24 0.19-0.44 0.51-0.44s0.62 0.98 0.67 2.18c0.09 2.14 0.1 2.15 0.33 0.29 0.21-1.71 0.71-2.18 2.09-1.94 0.26 0.04 0.31-0.19 0.11-0.51-0.2-0.33-1.27-0.6-2.37-0.6h-1.99v7.55c0 4.15-0.22 7.55-0.49 7.55s-0.37-3.27-0.22-7.26c0.2-5.17 0.09-7.26-0.38-7.26-0.46 0-0.66 2.4-0.66 7.86 0 7.68 0.03 7.85 1.17 7.24 1.05-0.56 1.16-1.25 1.23-7.43zm0.92 2.94c-0.13-0.89-0.24-0.3-0.25 1.3 0 1.59 0.11 2.31 0.25 1.6 0.13-0.71 0.14-2.02 0-2.9zm2.31 0.57c-0.15-0.56-0.27-0.1-0.27 1.02 0 1.11 0.12 1.57 0.27 1.01s0.15-1.47 0-2.03zm3.01 0.58c-0.07-1.37-0.12-1.41-0.34-0.29-0.45 2.36-1.05 1.37-0.83-1.38 0.15-1.87 0.01-2.57-0.43-2.29-0.36 0.22-0.65 1.56-0.65 2.98 0 2.19 0.18 2.58 1.16 2.58 0.9 0 1.15-0.36 1.09-1.6zm-12.51-2.01l-0.571-1.91-0.021 2.51c-0.015 1.7 0.168 2.31 0.571 1.91 0.397-0.4 0.404-1.23 0.021-2.51zm13.58-0.89c-0.13-0.88-0.24-0.29-0.25 1.3 0 1.6 0.11 2.32 0.24 1.61 0.14-0.72 0.15-2.02 0.01-2.91zm1.13 0.86c-0.16-0.4-0.28 0.07-0.27 1.02 0.01 0.96 0.14 1.28 0.29 0.72 0.15-0.57 0.14-1.35-0.02-1.74zm4.22-0.63c-0.04-1.21-0.05-1.21-0.52-0.09-0.38 0.94-0.52 0.72-0.73-1.16l-0.25-2.32-0.1 2.74c-0.08 2.22 0.07 2.67 0.77 2.4 0.48-0.18 0.85-0.89 0.83-1.57zm-6.54-1.1c-0.16-0.4-0.29-0.08-0.29 0.72s0.13 1.13 0.29 0.73 0.16-1.06 0-1.45zm4.06 0c-0.16-0.4-0.29-0.08-0.29 0.72s0.13 1.13 0.29 0.73 0.16-1.06 0-1.45zm-3.73-4.65c0.12-1.2 0-2.18-0.25-2.18-0.26 0-0.44 1.37-0.4 3.05 0.07 3.17 0.3 2.86 0.65-0.87zm-12.371-0.29c0.022-0.72-0.221-1.31-0.54-1.31-0.32 0-0.563 1.11-0.54 2.47 0.031 1.91 0.153 2.21 0.54 1.31 0.274-0.64 0.517-1.75 0.54-2.47zm10.891-0.01c-0.14-0.55-0.26 0.04-0.25 1.32 0.01 1.27 0.12 1.73 0.26 1.01 0.14-0.73 0.14-1.77-0.01-2.33zm3.2-0.35c0.04-1.16-0.1-2.29-0.31-2.5s-0.38 0.88-0.38 2.42c0 3.22 0.57 3.28 0.69 0.08zm-15.793 0.67c0-0.25-0.376-0.46-0.837-0.46-0.46 0-0.963 0.21-1.118 0.46-0.156 0.25 0.221 0.46 0.836 0.46 0.616 0 1.119-0.21 1.119-0.46zm11.613-1.02c0-0.31-0.39-0.41-0.87-0.23-0.48 0.19-0.87 0.44-0.87 0.57 0 0.12 0.39 0.22 0.87 0.22s0.87-0.25 0.87-0.56zm5.81-1.5c0-0.5-0.27-0.74-0.59-0.54-0.33 0.2-0.44 0.61-0.26 0.9 0.5 0.81 0.85 0.66 0.85-0.36zm-19.601-1.26c-1.038-0.13-2.736-0.13-3.774 0s-0.189 0.23 1.887 0.23 2.926-0.1 1.887-0.23zm3.92-0.74c0.479-0.31 0.61-0.56 0.291-0.56-0.32 0-0.973 0.25-1.452 0.56s-0.61 0.56-0.29 0.56c0.319 0 0.972-0.25 1.451-0.56zm11.031 0.01c0-0.31 0.63-0.73 1.39-0.92s2.12-1.11 3.01-2.04c0.9-0.93 2.1-1.7 2.68-1.7s1.05-0.09 1.05-0.21-1.15-2.66-2.57-5.66c-1.41-3-3.12-7.67-3.79-10.39-0.67-2.71-1.57-5.85-2-6.97-1.2-3.14-1.96-5.86-2.39-8.6-0.22-1.38-0.54-2.37-0.71-2.19-0.17 0.17 0.01 2.3 0.4 4.73s0.58 4.55 0.42 4.7c-0.37 0.37-1.28-4.2-2.46-12.28-1.67-11.52-3.78-22.36-4.348-22.36-0.204 0-0.346 1.57-0.316 3.48 0.03 1.92 0.221 3.49 0.423 3.49 0.201 0 0.501 0.52 0.671 1.16s0.09 1.16-0.18 1.16-0.605-0.46-0.753-1.01c-0.148-0.56-0.133 0.29 0.033 1.88 0.166 1.6 0.52 3.14 0.79 3.44 0.26 0.29 0.37-0.5 0.23-1.75s-0.12-1.75 0.05-1.11 0.53 1.69 0.81 2.33c0.51 1.16 1.18 4.91 2.35 13.06 0.34 2.4 1.16 6.53 1.81 9.19s1.06 4.96 0.91 5.11c-0.5 0.5-2.62-8.69-3.97-17.22-1.14-7.23-1.48-8.44-2.37-8.44-0.572 0-1.039 0.19-1.039 0.44 0 0.83 1.849 9.48 3.289 15.42 0.79 3.27 1.4 7.06 1.35 8.42-0.17 4.24-0.01 5.75 0.56 5.39 0.89-0.55 6.47 12.81 6.38 15.26-0.02 0.54-0.88-1.37-1.91-4.24-1.76-4.91-3.79-9.26-3.84-8.26-0.01 0.24 0.63 2.05 1.43 4.02 1.15 2.82 1.45 4.59 1.45 8.4 0 2.84 0.24 4.84 0.58 4.84 0.32 0 0.58-0.26 0.58-0.57zm0.89-10.03c-0.13-0.4-0.81-2.8-1.5-5.34s-1.4-5.02-1.57-5.52c-0.21-0.6-0.12-0.7 0.27-0.32 0.55 0.56 2.63 6.96 3.34 10.31 0.33 1.59-0.08 2.26-0.54 0.87zm-1.18-10.31c-0.19-0.32-0.08-0.58 0.26-0.58s0.61 0.26 0.61 0.58-0.11 0.58-0.25 0.58-0.42-0.26-0.62-0.58zm-0.87-2.61c0-0.48 0.1-0.87 0.23-0.87s0.38 0.39 0.56 0.87c0.19 0.48 0.08 0.87-0.23 0.87s-0.56-0.39-0.56-0.87zm-1.11-4.6c-0.03-0.61 0.11-0.95 0.3-0.76s0.21 0.7 0.05 1.11c-0.19 0.47-0.33 0.33-0.35-0.35zm-24.44 26.92c0-0.33-0.261-0.45-0.581-0.25-0.319 0.2-0.581 0.47-0.581 0.61s0.262 0.26 0.581 0.26c0.32 0 0.581-0.28 0.581-0.62zm16.657-1.44c4.053-1.79 5.173-2.92 5.143-5.2-0.02-1.63-0.18-1.75-2.53-1.92-3.352-0.24-7.674 1.27-9.717 3.4-1.002 1.05-2.019 1.61-2.545 1.41-0.481-0.19-0.711-0.17-0.51 0.03 0.2 0.2 0.145 1.13-0.123 2.06l-0.487 1.7h3.718c2.718 0 4.614-0.4 7.051-1.48zm5.273-1.22c1.69-1.16 2.95-2.23 2.8-2.38-0.14-0.15-1.76 0.81-3.59 2.12-4.114 2.94-3.43 3.17 0.79 0.26zm12.08 0.51c-0.2-0.2-0.81 0.12-1.36 0.69-0.96 1.01-0.94 1.02 0.36 0.36 0.74-0.38 1.19-0.86 1-1.05zm-58.265-3.91c0.162-2.55 0.093-3.99-0.153-3.19-0.445 1.44-0.755 8.54-0.352 8.08 0.116-0.13 0.343-2.33 0.505-4.89zm12.427 0.15c-0.211-2.64-0.777-10.41-1.256-17.28-0.48-6.87-1.138-14.45-1.463-16.84-0.325-2.4-0.843-7.49-1.151-11.33-0.308-3.83-0.941-8.27-1.407-9.87l-0.848-2.9 0.029 2.61c0.041 3.69-0.173 4.15-0.685 1.45-0.505-2.65-0.214 3.89 0.619 13.94 1.07 12.92 1.269 17.13 1.452 30.78 0.103 7.67 0.208 14 0.233 14.08 0.024 0.08 1.129 0.15 2.454 0.15h2.409l-0.386-4.79zm-3.183-7.41c-0.039-3.99 0.124-7.56 0.361-7.94 0.238-0.37 0.354 2.38 0.259 6.1-0.243 9.54-0.537 10.41-0.62 1.84zm-0.89-13.5c-0.567-6.55-0.832-21.21-0.334-18.44 0.258 1.44 0.49 4.84 0.516 7.55 0.07 7.33 0.682 12.81 1.382 12.38 0.369-0.23 0.448 0.01 0.208 0.64-0.214 0.56-0.389 1.12-0.389 1.26 0 0.13-0.241 0.24-0.535 0.24s-0.676-1.63-0.848-3.63zm-1.335-26.57c0-2.07 0.105-2.92 0.234-1.89 0.129 1.04 0.129 2.74 0 3.78s-0.234 0.19-0.234-1.89zm23.497 46.89l2.74-0.22-2.722-0.11c-2.452-0.09-2.926 0.12-4.786 2.08-1.135 1.2-2.066 2.42-2.069 2.72-0.003 0.29 0.918-0.54 2.046-1.86 1.775-2.07 2.421-2.43 4.791-2.61zm32.549 2.47c0.5 0 0.43-0.61-0.24-2.17-3.22-7.54-4.6-11.67-7.43-22.26-1.75-6.52-3.9-15-4.78-18.83-1.18-5.14-1.69-6.59-1.96-5.52-0.31 1.21-0.47 0.94-0.98-1.61-0.34-1.69-0.39-3.2-0.11-3.37 0.27-0.17 0.5-0.62 0.49-1-0.01-0.47-0.17-0.43-0.51 0.09-0.57 0.9-0.9 0.48-1.44-1.8-0.21-0.88-0.75-1.6-1.2-1.6s-0.95-0.46-1.1-1.02c-0.15-0.55-0.15 0.16 0 1.6 0.5 4.67 4.85 23.8 7 30.78 0.67 2.17 1.06 2.82 1.23 2.03 0.18-0.83 0.47-0.42 1.03 1.45 1.01 3.35 0.94 5.12-0.08 2.04-1.49-4.52-0.83-0.63 0.91 5.41 0.98 3.37 2.96 8.43 4.42 11.25 2.3 4.44 2.55 5.27 1.88 6.14-0.42 0.55-0.11 0.42 0.7-0.3s1.79-1.31 2.17-1.31zm-3.3-3.55c-1.28-3.38-2.41-7-2.38-7.65 0.02-0.38 0.81 1.36 1.76 3.88s1.59 4.71 1.44 4.87c-0.16 0.16-0.53-0.33-0.82-1.1zm-5.27-11.79c-0.02-0.61 0.12-0.95 0.31-0.76s0.21 0.69 0.04 1.11c-0.18 0.47-0.32 0.33-0.35-0.35zm1.16-1.74c-0.02-0.61 0.12-0.95 0.31-0.76s0.21 0.69 0.05 1.11c-0.19 0.46-0.33 0.33-0.36-0.35zm-1.67-6.51c-0.73-2.75-1.19-5.14-1.02-5.31 0.38-0.38 0.62 0.34 1.95 5.82 1.48 6.14 0.72 5.72-0.93-0.51zm-3.58-6.82c-0.41-1.71-0.64-3.43-0.51-3.82s0.63 1.01 1.12 3.11c0.49 2.11 0.72 3.83 0.51 3.83-0.2 0-0.71-1.4-1.12-3.12zm1.47-1.85c-0.22-1.16-0.28-2.23-0.14-2.38 0.14-0.14 0.43 0.7 0.65 1.86 0.22 1.17 0.28 2.24 0.14 2.38s-0.43-0.69-0.65-1.86zm-0.82-4.32c0-0.8 0.14-1.13 0.3-0.73s0.16 1.05 0 1.45-0.3 0.08-0.3-0.72zm-1.98-1.16c-0.74-2.82-1.13-9.61-0.51-9 0.33 0.31 0.66 1.82 0.74 3.33 0.09 1.82 0.4 2.76 0.9 2.76 0.42 0 0.76 0.46 0.75 1.02 0 0.83-0.1 0.87-0.53 0.18-0.39-0.61-0.59-0.3-0.75 1.16-0.19 1.85-0.24 1.89-0.6 0.55zm-2.98-10.85c-0.73-2.31-1.34-6.58-0.94-6.58 0.53 0 2.03 6.88 1.59 7.32-0.17 0.18-0.47-0.16-0.65-0.74zm-1.47-7.98c-0.02-0.61 0.11-0.95 0.31-0.76 0.19 0.19 0.21 0.69 0.04 1.11-0.18 0.47-0.32 0.33-0.35-0.35zm-46.551 56.92c-0.442-0.44-5.714-0.58-6.127-0.17-0.224 0.22 1.118 0.4 2.981 0.4s3.279-0.1 3.146-0.23zm66.321-3.05c-0.65-1.23-1.19-2.07-1.21-1.87-0.05 0.77 1.8 4.68 2.09 4.4 0.16-0.16-0.23-1.3-0.88-2.53zm-33.026 1.71c-0.719-0.14-1.895-0.14-2.614 0-0.718 0.14-0.13 0.25 1.307 0.25s2.025-0.11 1.307-0.25zm-33.393-1.33c0.205-0.76 0.16-0.76-0.359-0.02-0.611 0.88-0.677 0.79-1.578-2.19-0.163-0.54-0.816-0.31-2.261 0.79-1.118 0.85-1.881 1.8-1.695 2.1 0.557 0.9 5.625 0.32 5.893-0.68zm50.049 0.34c0.44-0.53 0.47-0.94 0.1-1.17-0.32-0.2-0.87 0.17-1.21 0.81-0.72 1.34 0.08 1.6 1.11 0.36zm-22.077-1.43c-1.308-0.2-1.324-0.24-0.241-0.65 1.056-0.4 0.985-0.54-0.79-1.53-3.624-2.02-4.465-3.22-0.995-1.42 2.482 1.29 4.183 1.77 6.098 1.73l2.655-0.06-3.738-0.82c-2.056-0.45-4.367-1.23-5.135-1.73-3.406-2.23-6.359-12.91-7.373-26.66-0.4-5.43-0.763-8.59-0.806-7.02-0.112 4.07-0.511 3.12-0.965-2.28-0.35-4.15-1.96-10.32-2.94-11.25-0.396-0.38-0.217 1 1.493 11.55 0.595 3.67 1.393 9.55 1.772 13.07 0.813 7.52 2.951 16.45 4.617 19.28 0.651 1.1 1.042 2.23 0.869 2.51-0.434 0.7 3.769 6.45 4.421 6.05 0.29-0.18 0.526-0.02 0.526 0.36 0 0.48 0.286 0.45 0.967-0.11 0.881-0.73 0.842-0.82-0.435-1.02zm10.574-1.01c1.423-0.53 4.521-0.97 7.033-1.02 2.48-0.04 4.5-0.2 4.5-0.36s-0.16-0.87-0.35-1.58c-0.31-1.16-0.6-1.25-3.04-0.94-4.179 0.54-4.882 1.32-0.96 1.06l3.49-0.24-3.7 0.58c-2.029 0.32-4.609 0.96-5.73 1.43-1.121 0.46-3.116 0.88-4.435 0.92-1.318 0.03-3.181 0.26-4.139 0.51-1.447 0.37-1.189 0.45 1.524 0.51 1.796 0.04 4.41-0.35 5.807-0.87zm-39.497-2.13c-0.995-1-1.382-0.07-0.54 1.29 0.642 1.04 0.799 1.08 0.966 0.29 0.11-0.53-0.082-1.24-0.426-1.58zm65.21-1.09c-0.56-1.06-1.74-4.16-2.63-6.87-0.89-2.72-1.63-4.48-1.65-3.91-0.04 1.9 4.44 13.58 4.99 13.02 0.17-0.16-0.15-1.17-0.71-2.24zm-29.85-0.13c-8.769-3-10.726-4.88-10.726-10.32 0-1.91-0.248-3.26-0.59-3.2-0.324 0.05-0.612-0.82-0.641-1.94-0.088-3.4-2.519-18.03-3.168-19.06-0.53-0.84-0.574-0.82-0.331 0.19 0.154 0.64 0.454 4.37 0.666 8.29 0.458 8.43 2.366 17.26 4.744 21.95 1.532 3.02 2.008 3.48 4.571 4.38 1.574 0.55 4.299 1.01 6.056 1h3.194l-3.775-1.29zm-34.263-0.1c0-0.5-0.265-0.74-0.59-0.54s-0.44 0.61-0.256 0.9c0.498 0.81 0.846 0.66 0.846-0.36zm42.544-0.26c1.819-0.64 3.989-1.16 4.819-1.16 2.19 0 1.46-1.37-0.95-1.78-1.09-0.19-2.902-0.91-4.02-1.6-1.398-0.87-2.97-1.26-5.036-1.26-6.661-0.01-11.526-6.82-15.294-21.4-1.102-4.27-1.058-2.45 0.109 4.56 0.909 5.44 1.633 7.75 3.931 12.51 2.725 5.66 6.649 10.42 7.513 9.12 0.404-0.61 8.775-2.09 9.229-1.63 0.52 0.52-4.212 1.72-6.058 1.54-0.689-0.07-1.448 0.19-1.688 0.58-0.314 0.51-0.062 0.61 0.891 0.36 0.798-0.21 1.663-0.01 2.165 0.49 1.015 1.01 0.46 1.05 4.389-0.33zm-9.107-3.41c-0.29-0.47 4.876-0.19 5.423 0.3 0.133 0.11-0.962 0.21-2.433 0.21-1.472 0-2.818-0.23-2.99-0.51zm6.633-0.65c0-0.32 0.262-0.58 0.581-0.58s0.581 0.26 0.581 0.58-0.262 0.58-0.581 0.58-0.581-0.26-0.581-0.58zm-6.678-0.91c-2.348-1.22-5.42-4.22-6.497-6.35-0.865-1.71-0.848-1.71 0.897 0.29 0.978 1.12 1.789 2.19 1.802 2.39 0.059 0.91 5.094 3.58 7.504 3.99l2.682 0.45-2.323 0.07c-1.278 0.03-3.107-0.35-4.065-0.84zm-32.426 1.92c-0.162-0.39-0.293-0.07-0.293 0.73s0.131 1.13 0.293 0.73c0.161-0.4 0.161-1.06 0-1.46zm28.245-0.14c-0.686-0.48-2.091-2.71-3.123-4.95-1.032-2.23-1.969-3.97-2.082-3.86-0.391 0.39 3.86 9 4.589 9.29 1.505 0.61 1.82 0.36 0.616-0.48zm18.412-0.74c0-0.25-0.72-0.78-1.6-1.18-4.899-2.2-7.279-3.93-11.488-8.32-4.695-4.89-8.762-10.21-8.224-10.75 0.16-0.16 1.112 0.91 2.117 2.37 1.004 1.46 1.962 2.65 2.128 2.65s-0.267-0.8-0.963-1.78c-0.695-0.97-1.149-1.89-1.008-2.03s1.075 0.89 2.077 2.28c1.625 2.26 10.306 9.42 14.921 12.3l1.75 1.09-1.17-1.35c-0.63-0.75-2.33-2.15-3.77-3.13-4.74-3.22-10.568-8.92-14.984-14.65-1.207-1.56-1.299-1.6-0.954-0.35 0.258 0.93 0.175 1.25-0.253 0.98-0.408-0.25-0.518-0.01-0.305 0.66 0.294 0.93 0.23 0.92-0.591-0.09-0.506-0.62-0.778-1.58-0.604-2.13s0.046-1.16-0.285-1.37c-0.33-0.2-0.902-0.94-1.269-1.64-0.664-1.27-0.66-1.27 0.577-0.17 1.482 1.32 1.571 0.92 0.332-1.48-0.502-0.97-0.789-1.89-0.636-2.04 0.152-0.16 1.126 1.31 2.163 3.26 2.546 4.77 9.747 12.77 15.067 16.73 2.395 1.78 4.682 3.49 5.092 3.8 0.46 0.35 0.33-0.4-0.34-1.99-0.71-1.66-2.174-3.42-4.223-5.07-4.123-3.32-8.355-7.37-10.713-10.25-2.425-2.97-7.972-11.91-7.388-11.91 0.244 0 1.731 2.12 3.304 4.7 1.574 2.59 4.609 6.57 6.745 8.86 4.407 4.72 11.445 10.49 10.825 8.88-0.218-0.57-0.398-1.27-0.398-1.54s-0.47-0.64-1.044-0.82c-0.574-0.19-3.441-2.75-6.372-5.7-4.246-4.28-6.411-7.15-10.651-14.09-2.927-4.79-5.612-9.11-5.968-9.61-0.355-0.5 0.017-0.23 0.829 0.6 0.811 0.82 3.675 5.11 6.364 9.52 3.63 5.96 6.186 9.36 9.928 13.2 2.771 2.84 5.33 5.17 5.686 5.17s0.647-0.79 0.647-1.74c0-1.06-0.302-1.75-0.77-1.75-0.423 0-1.384-0.65-2.134-1.45s-1.143-1.45-0.874-1.45-1.343-1.89-3.582-4.21c-2.24-2.32-6.377-7.69-9.195-11.94-2.817-4.26-6.931-9.83-9.142-12.39s-3.916-4.76-3.788-4.89c0.553-0.55 8.552 9.42 13.542 16.88 3.613 5.4 7.103 9.78 10.4 13.05 2.729 2.71 4.962 4.65 4.962 4.31s-0.189-0.81-0.42-1.04-0.474-1.27-0.541-2.31c-0.066-1.04-0.907-5.41-1.869-9.71s-1.923-9.12-2.137-10.71c-0.394-2.92-1.001-3.78-2.582-3.68-0.636 0.05-0.602 0.13 0.126 0.32 0.591 0.16 1.111 1.02 1.276 2.11 0.829 5.49 0.895 6.79 0.347 6.79-0.323 0-0.614-1.24-0.646-2.76s-0.228-3.34-0.435-4.05l-0.378-1.29-0.672 1.44c-0.369 0.79-0.434 1.29-0.145 1.11 0.29-0.18 0.53 0.54 0.535 1.59 0.004 1.06 0.141 2.58 0.305 3.38 0.296 1.44 0.293 1.44-0.387 0.14-0.376-0.72-0.891-1.3-1.143-1.3s-0.339 0.58-0.192 1.3c0.146 0.72 0.435 2.86 0.642 4.77 0.348 3.2 0.624 3.72 3.765 7.09 4.438 4.77 4.363 5.48-0.111 1.05-2.488-2.46-3.667-4.14-4.078-5.79-0.318-1.28-0.833-2.78-1.146-3.33-0.806-1.44-0.702-4.91 0.259-8.6 0.544-2.09 0.811-6.05 0.781-11.59-0.051-9.34-0.664-8.83-1.313 1.1-0.51 7.81-1.323 9.13-0.998 1.62l0.231-5.34-1.734 2.69c-0.954 1.47-2.036 3.24-2.404 3.93-0.9 1.68-0.179 2.77 0.929 1.4 0.546-0.67 0.774-0.75 0.635-0.22-0.276 1.06-1.996 2.16-2.535 1.62-0.514-0.51 0.952-6.8 1.585-6.8 1.012 0 3.674-5.62 4.374-9.24 0.899-4.64 0.995-8.76 0.204-8.76-0.32 0-0.581 0.89-0.581 1.99 0 3.01-1.623 10.11-2.744 12.01-1.457 2.46-2.074 2.04-0.744-0.51 0.627-1.2 1.242-2.97 1.368-3.92 0.125-0.95 0.105-1.37-0.046-0.93-0.582 1.72-2.267 4.03-4.016 5.5-2.784 2.34-2.798 1.85-0.042-1.53 1.816-2.23 2.794-4.18 3.574-7.12 0.59-2.22 1.329-4.37 1.642-4.77 0.351-0.45 0.357-0.72 0.018-0.72-0.304 0-1.384 2.18-2.399 4.86-2.701 7.11-5.848 9.54-9.131 7.06-1.367-1.04-0.839-1.13 1.174-0.22 2.992 1.37 5.093-1.04 7.818-8.97 0.636-1.84 0.905-3.2 0.6-3.01-0.306 0.19-0.559 0.65-0.562 1.04-0.003 0.38-1.051 2.33-2.328 4.35-2.37 3.73-4.757 5.38-7.665 5.3-0.831-0.03-0.35-0.34 1.288-0.84 2.576-0.8 6.079-4.02 5.458-5.02-0.165-0.27-0.063-0.49 0.227-0.49 0.763 0 2.712-4.58 2.166-5.09-0.253-0.23-0.559-0.17-0.679 0.15-0.892 2.38-4.334 7.69-5.584 8.63-1.458 1.09-1.64 1.09-4.026 0.18-1.861-0.71-2.902-1.62-4.081-3.57-0.87-1.44-1.333-2.62-1.028-2.62s1.071 1.01 1.703 2.25c1.307 2.56 4.8 4.41 6.559 3.48 1.716-0.91 3.929-4.67 3.577-6.07-0.177-0.7-0.063-1.44 0.252-1.63 0.341-0.21 0.455 0.17 0.281 0.95-0.22 0.98 0.02 0.82 0.956-0.64 1.12-1.75 1.159-2.06 0.375-2.92-1.283-1.42-1.197-17.32 0.101-18.8 0.83-0.94 0.741-1.01-1.27-1.01-2.498 0-15.808 4.38-17.346 5.71-3.649 3.15-4.964 9.94-3.579 18.47 0.459 2.83 0.836 6.25 0.837 7.61 0.003 3.17 1.708 7.62 4.063 10.59 2.014 2.55 4.245 6.88 4.87 9.46 0.215 0.89 2.573 6.51 5.24 12.49 9.106 20.41 15.555 30.32 19.74 30.33 1.03 0 2.925 0.75 4.417 1.74 2.499 1.66 4.649 2.25 4.649 1.29zm-20.329-20.17c-0.41-0.49-0.615-1.03-0.456-1.19 0.16-0.16 0.627 0.12 1.037 0.61 0.41 0.5 0.616 1.03 0.456 1.19s-0.626-0.11-1.037-0.61zm9.873-3.48c-0.404-0.49-0.467-0.87-0.143-0.87 0.32 0 0.906 0.39 1.304 0.87 0.403 0.48 0.466 0.87 0.142 0.87-0.319 0-0.906-0.39-1.303-0.87zm-15.293-12.87c-0.213-0.22-0.387-0.66-0.387-0.99 0-0.36 0.271-0.33 0.687 0.09 0.378 0.37 0.552 0.82 0.387 0.98-0.165 0.17-0.474 0.13-0.687-0.08zm4.05-8.38c-1.482-1.3-2.695-2.64-2.695-2.97s1.045 0.48 2.322 1.79c1.278 1.32 2.734 2.39 3.237 2.39 1.363 0-0.81-2.56-4.24-5-1.522-1.08-2.465-1.96-2.095-1.96 0.97 0 6.424 4.42 7.168 5.81 0.625 1.17 0.358 2.32-0.537 2.32-0.256 0-1.678-1.07-3.16-2.38zm-3.808-10.03c0.606-0.52 4.593-0.83 4.286-0.34-0.186 0.3-1.28 0.55-2.433 0.55-1.152 0-1.986-0.09-1.853-0.21zm-2.265-1.83c-2.686-1.17-5.334-3.13-5.324-3.95 0.006-0.46 0.15-0.49 0.436-0.08 0.674 0.97 4.559 3.18 6.615 3.77 1.49 0.43 2.269 0.31 3.795-0.59 2.209-1.31 2.526-0.99 0.615 0.6-1.562 1.3-3.523 1.38-6.137 0.25zm1.064-12.88c0.005-0.26 0.262-0.86 0.572-1.34 0.485-0.75 0.564-0.74 0.572 0.11 0.005 0.54-0.253 1.14-0.572 1.34s-0.577 0.15-0.572-0.11zm-3.081-1.92c0.167-0.64 0.404-1.16 0.527-1.16 0.122 0 0.222 0.52 0.222 1.16s-0.236 1.16-0.526 1.16c-0.289 0-0.39-0.52-0.223-1.16zm4.436-2.61c0.201-1.28 0.369-3.44 0.372-4.79 0.004-1.36 0.215-2.47 0.47-2.47 0.551 0-0.196 8.65-0.794 9.2-0.228 0.21-0.25-0.67-0.048-1.94zm-1.944-1.17c0-0.47 0.253-0.87 0.562-0.87s0.412 0.4 0.228 0.87c-0.184 0.48-0.437 0.88-0.562 0.88-0.126 0-0.228-0.4-0.228-0.88zm-4.02-2.27c-0.025-0.61 0.112-0.96 0.305-0.76 0.193 0.19 0.214 0.69 0.046 1.11-0.185 0.46-0.323 0.33-0.351-0.35zm4.646-1.74c-0.025-0.61 0.112-0.96 0.305-0.76 0.193 0.19 0.214 0.69 0.046 1.11-0.185 0.46-0.323 0.32-0.351-0.35zm-2.369-0.89c0-0.3 0.262-0.71 0.581-0.9 0.32-0.2 0.581 0.05 0.581 0.54 0 0.5-0.261 0.91-0.581 0.91-0.319 0-0.581-0.25-0.581-0.55zm2.437-2.06c-0.012-0.96 0.108-1.42 0.267-1.03s0.169 1.18 0.022 1.74c-0.147 0.57-0.278 0.24-0.289-0.71zm2.209-2.33c0-1.54 0.119-2.69 0.264-2.54 0.454 0.45 0.572 4.51 0.144 4.94-0.224 0.23-0.408-0.85-0.408-2.4zm-4.019-0.53c-0.025-0.61 0.112-0.95 0.305-0.76s0.214 0.69 0.046 1.11c-0.186 0.46-0.323 0.33-0.351-0.35zm2.178-3.82c0.121-1.28 0.324-2.33 0.45-2.33 0.127 0 0.23 1.05 0.23 2.33s-0.203 2.32-0.451 2.32-0.351-1.04-0.229-2.32zm-2.132 0.58c0-0.8 0.132-1.13 0.293-0.73s0.161 1.06 0 1.45c-0.161 0.4-0.293 0.08-0.293-0.72zm4.344-2.03c0.184-0.48 0.437-0.88 0.562-0.88 0.126 0 0.229 0.4 0.229 0.88 0 0.47-0.253 0.87-0.563 0.87-0.309 0-0.412-0.4-0.228-0.87zm-2.067-2.28c-0.025-0.61 0.112-0.95 0.305-0.76s0.213 0.69 0.046 1.11c-0.186 0.47-0.323 0.33-0.351-0.35zm-2.904-2.32c-0.025-0.61 0.112-0.96 0.305-0.76 0.193 0.19 0.214 0.69 0.046 1.11-0.185 0.46-0.323 0.32-0.351-0.35zm1.742-0.58c-0.025-0.61 0.112-0.96 0.305-0.76 0.193 0.19 0.214 0.69 0.046 1.11-0.185 0.46-0.323 0.32-0.351-0.35zm4.959 92.77c-0.491-0.91-0.903-1.3-0.916-0.88-0.031 1 1.15 3.19 1.521 2.82 0.159-0.16-0.113-1.03-0.605-1.94zm21.713 1.03c0-0.29-2.53-2.31-5.611-4.5-3.084-2.18-6.742-5.08-8.13-6.42-1.388-1.35-2.523-2.24-2.523-1.98 0 0.7 10.305 10.51 11.044 10.51 0.347 0 1.593 0.66 2.77 1.46 2.4 1.63 2.45 1.65 2.45 0.93zm-11.96-1.95c-0.607-0.72-2.06-2.39-3.23-3.7-1.169-1.32-3.227-4.4-4.572-6.86-2.628-4.78-3.4-5.4-2.083-1.67 2.134 6.05 4.913 10.16 8.194 12.13 2.878 1.73 3.075 1.74 1.691 0.1zm11.7-6.39c-0.22-1.68-0.88-4.88-1.46-7.11-1.669-6.41-3.064-14.21-2.706-15.14 0.44-1.14-1.21-13.42-1.971-14.66-0.538-0.87-0.587-0.85-0.445 0.18 0.093 0.68-0.141 1.1-0.566 1.02-1.082-0.22-0.925 1.24 1.378 12.8 1.158 5.82 2.199 11.35 2.315 12.31 0.475 3.93 2.995 13.65 3.535 13.65 0.18 0 0.14-1.37-0.08-3.05zm-5.53-26.09c-0.83-3.82-1.454-9-1.036-8.61 0.413 0.39 2.239 11.17 1.942 11.46-0.128 0.13-0.536-1.15-0.906-2.85zm15.98 16.81c-1.44-5.93-2.78-11.92-2.99-13.31-0.35-2.4-2.53-12.12-3.8-16.97-0.36-1.4-0.79-2.05-1.13-1.71-0.33 0.33-0.21 1.52 0.32 3.12 0.48 1.42 2.05 8.07 3.51 14.78 2.74 12.69 6.24 26.27 6.53 25.39 0.09-0.28-1-5.36-2.44-11.3zm-31.574-5.8c-0.417-0.42-0.688-0.45-0.688-0.09 0 0.78 0.687 1.47 1.075 1.08 0.165-0.17-0.009-0.61-0.387-0.99zm-8.433-9.31c-0.161-0.4-0.293-0.07-0.293 0.73 0 0.79 0.132 1.12 0.293 0.72s0.161-1.05 0-1.45zm33.067-6.09c-0.19-0.19-0.33 0.16-0.3 0.77 0.02 0.67 0.16 0.81 0.35 0.35 0.16-0.42 0.14-0.92-0.05-1.12zm-10.804-7.12c0-0.32-0.276-0.58-0.615-0.58-0.338 0-0.453 0.26-0.256 0.58 0.198 0.32 0.475 0.58 0.615 0.58 0.141 0 0.256-0.26 0.256-0.58zm-33.156-8.94c-0.527-0.49-0.605-0.38-0.321 0.42 0.207 0.59 0.427 2.55 0.488 4.36l0.112 3.29 0.208-3.72c0.135-2.39-0.039-3.94-0.487-4.35zm40.45 6.92c0.86-0.65 0.92-0.86 0.26-0.88-0.48-0.02-2.63-0.13-4.784-0.24-2.716-0.14-4.1 0.03-4.537 0.56-0.486 0.58-0.259 0.81 1.005 1 3.715 0.56 6.976 0.38 8.056-0.44zm-8.749-2.04c0.21-0.34-0.05-0.42-0.642-0.19-0.661 0.25-0.86 0.16-0.59-0.28 0.259-0.42 2.521-0.65 6.261-0.65 3.22 0.01 5.96-0.1 6.1-0.24 0.14-0.13-0.14-2.04-0.61-4.23-0.47-2.2-1.02-5.96-1.21-8.35-0.57-6.94-0.84-7.93-2.42-8.64-0.78-0.36-1.579-0.65-1.77-0.65-0.348 0 0.053 4.56 0.91 10.33 0.25 1.69 0.24 3.21-0.01 3.36-0.591 0.37-0.867-1.03-1.586-8.03-0.32-3.11-0.745-5.92-0.943-6.24-0.402-0.65-3.733-0.79-5.224-0.22-0.867 0.34-0.924 1.48-0.584 11.76 0.207 6.27 0.479 11.72 0.605 12.12 0.273 0.87 1.218 0.95 1.713 0.15zm6.769-5.23c-0.01-0.8 0.2-2.5 0.46-3.78l0.48-2.32 0.01 2.32c0 1.28-0.2 2.98-0.46 3.78l-0.46 1.45-0.03-1.45zm7.35 4.53c0.38-0.39 0.69-1.74 0.69-3 0-1.27-0.17-2.13-0.38-1.92s-0.35 1.29-0.31 2.39c0.11 3.03-0.86 3.01-1.32-0.03-0.22-1.46-0.51-2.55-0.65-2.41-0.38 0.38 0.44 5.66 0.88 5.66 0.22 0 0.7-0.31 1.09-0.69zm0.46-5.92c0.84 0.11 1.75-1.57 2.77-5.08 0.76-2.64 1.23-3.35 2.4-3.64 0.8-0.2 1.44-0.56 1.43-0.79-0.03-0.75-1.39-2.23-3.03-3.3l-1.59-1.03v5.38l1.79-0.92c0.99-0.51 1.92-0.81 2.08-0.65 0.15 0.15-0.45 0.63-1.34 1.06-1.02 0.49-1.82 1.48-2.17 2.69-0.35 1.24-0.82 1.81-1.33 1.62-0.45-0.18-0.8 0.11-0.83 0.69-0.04 0.65-0.23 0.48-0.53-0.45-0.67-2.11-0.67-6.39 0-6.39 0.32 0 0.55-0.98 0.51-2.18l-0.08-2.17-0.43 2.03-0.43 2.03-0.07-1.89c-0.1-2.37-1.24-2.5-1.24-0.14 0 0.96 0.07 1.83 0.15 1.94s-0.2 0.61-0.61 1.11c-0.48 0.58-0.55 1.04-0.17 1.27 0.32 0.2 0.43 0.74 0.25 1.21s-0.54 0.72-0.8 0.55c-0.71-0.43-1.28 0.77-0.77 1.61 0.25 0.39 0.39 1.5 0.32 2.46-0.07 0.97 0.13 2.15 0.46 2.63 0.52 0.77 0.65 0.77 1.16 0 0.45-0.68 0.58-0.49 0.62 0.87 0.04 1.46 0.13 1.55 0.51 0.58 0.25-0.64 0.68-1.13 0.97-1.1zm-0.35-1.8c0-0.21 0.42-0.8 0.94-1.31 0.85-0.86 0.91-0.85 0.72 0.13-0.19 1-1.66 2.04-1.66 1.18zm1.76-9.15l-0.28-3.63-0.19 2.83c-0.17 2.48 0.08 4.42 0.58 4.43 0.09 0 0.04-1.64-0.11-3.63zm3.58-3.2c-0.61-0.88-1.41-3.29-1.76-5.37-0.66-3.91-0.31-10.45 0.57-10.45 0.27 0 0.5-0.28 0.5-0.62 0-0.33-0.23-0.47-0.51-0.3s-0.67-0.66-0.86-1.85c-0.53-3.2-0.45-4.9 0.21-4.49 0.33 0.21 0.56-0.33 0.54-1.27-0.04-1.37-0.12-1.45-0.49-0.5-0.41 1.04-0.47 1.02-0.82-0.29-0.21-0.79-0.35-2.73-0.32-4.33 0.06-2.6 0.11-2.72 0.55-1.16 0.52 1.87 0.32-3.17-0.63-16.26-0.6-8.25-1.12-17.96-1.14-21.26-0.01-1.92-0.14-2.08-1.47-1.82-1.69 0.32-1.52-2.02-1.77 23.85-0.14 15.08-0.3 17.77-1.09 18.63-0.57 0.63-0.91 2.08-0.91 3.83 0 3.32-0.79 2.99-1.12-0.47-0.02-0.26-0.31-0.31-0.62-0.11-0.32 0.2-0.59 2.02-0.59 4.04 0 2.71-0.34 4.34-1.3 6.15-1.503 2.83-3.425 3.85-9.149 4.84-3.606 0.62-3.781 0.72-3.927 2.39-0.251 2.86 0.535 3.52 3.223 2.72 3.603-1.08 6.641-0.84 9.683 0.78 1.94 1.04 3.29 1.37 4.58 1.15 1.37-0.23 2.78 0.19 5.61 1.68 2.07 1.09 3.85 2.01 3.95 2.04 0.11 0.03-0.32-0.67-0.94-1.55zm-10.46-8.27c-0.1-1.92 0.05-3.49 0.32-3.49 0.28 0 0.52 1.57 0.53 3.49 0.02 1.91-0.13 3.48-0.32 3.48-0.2 0-0.44-1.57-0.53-3.48zm10.17 0.72c-0.15-0.56-0.26 0.03-0.26 1.31 0.01 1.28 0.13 1.73 0.27 1.01s0.13-1.77-0.01-2.32zm-29.895 1.02c-0.225-1.53-0.018-1.84 1.697-2.55 1.075-0.44 3.628-1 5.674-1.23 7.53-0.85 9.924-3.11 9.924-9.37 0-3.32-0.1-3.59-1.449-3.93-0.798-0.2-1.452-0.62-1.452-0.93s-0.877-1.55-1.948-2.75c-3.024-3.38-3.291-4.28-3.674-12.28l-0.359-7.5-2.775 2.07c-2.517 1.88-2.809 2.34-3.149 5.03-0.206 1.62-0.874 5.7-1.483 9.05-2.118 11.65-2.9 24.13-1.594 25.44 0.383 0.38 0.73 0.69 0.77 0.69 0.041 0-0.041-0.78-0.182-1.74zm6.422-8.48c0.192-0.19 0.693-0.21 1.113-0.05 0.463 0.19 0.325 0.33-0.351 0.35-0.612 0.03-0.955-0.11-0.762-0.3zm-0.581-2.32c0.193-0.2 0.694-0.22 1.113-0.05 0.463 0.19 0.326 0.32-0.351 0.35-0.612 0.03-0.955-0.11-0.762-0.3zm0-1.75c0.193-0.19 0.694-0.21 1.113-0.04 0.463 0.18 0.326 0.32-0.351 0.35-0.612 0.02-0.955-0.11-0.762-0.31zm-0.581-2.32c0.193-0.19 0.694-0.21 1.113-0.04 0.463 0.18 0.326 0.32-0.351 0.35-0.612 0.02-0.955-0.12-0.762-0.31zm0.581-2.32c0.193-0.19 0.694-0.22 1.113-0.05 0.463 0.19 0.326 0.33-0.351 0.35-0.612 0.03-0.955-0.11-0.762-0.3zm0-1.74c0.193-0.2 0.694-0.22 1.113-0.05 0.463 0.19 0.326 0.32-0.351 0.35-0.612 0.03-0.955-0.11-0.762-0.3zm0.581-5.81c0.192-0.19 0.693-0.21 1.113-0.05 0.463 0.19 0.325 0.33-0.351 0.35-0.612 0.03-0.955-0.11-0.762-0.3zm-2.107-5.75c0.179-2.55 0.545-4.88 0.814-5.16 0.571-0.61 0.083 5.52-0.642 8.07-0.323 1.13-0.383 0.11-0.172-2.91zm2.096-1.16c-0.007-1.28 0.107-1.87 0.252-1.31 0.146 0.55 0.151 1.6 0.012 2.32s-0.258 0.27-0.264-1.01zm-0.147-4.55c0-1.17 0.227-2.13 0.505-2.13 0.277 0 0.408 0.83 0.29 1.84-0.305 2.63-0.795 2.8-0.795 0.29zm-35.065 23.22c0.802-3.15 1.363-5.82 1.248-5.93-0.116-0.12-0.906 1.54-1.756 3.69-0.85 2.14-1.543 3.5-1.539 3.02 0.01-1.42 2.681-7.84 3.221-7.74 0.275 0.05 0.519-0.73 0.544-1.74 0.024-1.01 1.294-4.98 2.822-8.81 5.178-12.99 9.538-21.28 17.555-33.39 3.526-5.32 6.669-10.74 12.6-21.7 2.796-5.17 1.584-4.76-1.42 0.47-1.624 2.84-6.122 9.88-9.996 15.66-3.875 5.78-8.265 12.34-9.756 14.57-1.492 2.24-3.81 6.12-5.152 8.63-1.341 2.52-4.583 7.87-7.202 11.91-2.62 4.03-5.474 9.11-6.343 11.28-1.422 3.54-1.515 4.19-0.927 6.53 0.653 2.59 1.677 3.53 1.677 1.53 0-0.58 0.417-2.28 0.926-3.77 0.668-1.96 1.233-2.72 2.032-2.72 1.539 0 1.411 1.53-0.468 5.6-1.349 2.91-1.597 4.28-1.722 9.5l-0.146 6.1 1.173-3.48c0.645-1.92 1.828-6.06 2.629-9.21zm-6.166-6.15c0-0.34 0.261-0.61 0.581-0.61 0.319 0 0.58 0.11 0.58 0.25s-0.261 0.42-0.58 0.62c-0.32 0.19-0.581 0.08-0.581-0.26zm1.161-2.67c0-0.5 2.386-5.04 3.494-6.64 0.56-0.81 2.479-3.75 4.266-6.55 3.099-4.85 4.436-6.12 4.436-4.21 0 0.48-0.294 0.81-0.654 0.73-0.617-0.14-8.129 11.03-10.153 15.1-0.871 1.74-1.389 2.33-1.389 1.57zm3.816 1.03c-0.287-0.29-1.714 2.9-2.304 5.14-0.203 0.77 0.292-0.01 1.099-1.74 0.808-1.72 1.35-3.25 1.205-3.4zm49.465 0.8l1.85-1.96 0.17-18.91c0.08-10.41 0.01-18.73-0.16-18.51-1.9 2.39-3.57 4.98-4.08 6.32-0.36 0.97-0.64 6.87-0.67 14.41-0.04 8.35-0.2 11.57-0.478 9.29-0.341-2.82-1.017-14.8-1.111-19.69-0.02-1.07-0.06-1.07-1.182-0.05-0.639 0.58-1.162 1.27-1.162 1.55 0 0.27-0.806 1.6-1.791 2.95l-1.792 2.47 0.406 6.39c0.659 10.4 0.925 11.43 3.808 14.72 1.41 1.62 2.963 2.95 3.452 2.96 0.49 0.02 1.72-0.86 2.74-1.94zm11.21-22.42c0.53-9.93 0.33-27.09-0.33-27.78-0.1-0.1-0.9 1.04-1.79 2.55l-1.6 2.74 0.77 14.58c0.42 8.02 0.84 15.63 0.93 16.91s0.21 3.37 0.27 4.64l0.1 2.33 0.5-2.04c0.28-1.11 0.8-7.39 1.15-13.93zm-61.379 11.33c1.163-1.75 2.115-3.31 2.115-3.46s1.148-1.91 2.552-3.93c1.403-2.01 3.658-5.74 5.01-8.3 1.352-2.55 3.687-6.47 5.189-8.71 1.502-2.23 6.035-8.98 10.073-15 9.056-13.48 12.918-20.56 13.369-24.488 0.276-2.401 0.213-2.713-0.363-1.804-6.664 10.522-8.601 13.002-18.989 24.322-6.286 6.85-18.375 22.2-21.27 27.01-2.094 3.47-2.923 6.47-2.24 8.1 0.32 0.77 0.622 0.3 1.193-1.84 0.421-1.58 0.633-3.08 0.473-3.34-0.161-0.26-0.015-0.47 0.323-0.47s0.615-0.51 0.615-1.13 0.261-1.29 0.58-1.49c0.778-0.48 0.759-0.33-0.58 4.5-1.16 4.19-1.575 10.31-0.698 10.31 0.256 0 0.782-0.88 1.171-1.95 0.81-2.24 2.549-4.44 3.515-4.44 0.362 0 0.136 0.53-0.501 1.16-1.65 1.65-4.727 8.14-3.86 8.14 0.115 0 1.16-1.44 2.323-3.19zm-0.817-10.82c1.3-3.42 4.492-8.88 5.984-10.23 1.481-1.34 2.003-0.38 0.684 1.26-0.618 0.77-1.858 2.31-2.757 3.43s-1.734 2.83-1.856 3.8c-0.24 1.89-1.839 4.71-2.672 4.71-0.281 0-0.004-1.34 0.617-2.97zm2.387 0.54c0.034-0.73 1.821-3.63 6.418-10.43 1.154-1.71 4.049-6.11 6.434-9.79 3.552-5.47 12.528-17.32 18.475-24.39 2.447-2.91 0.13 0.84-3.291 5.32-1.865 2.44-5.823 7.63-8.796 11.53-5.096 6.68-10.183 15.91-12.293 22.31-0.374 1.13-0.914 2.2-1.201 2.38-0.611 0.38 0.667-3.42 2.052-6.1 0.529-1.03 0.854-1.97 0.721-2.1-0.297-0.3-6.58 8.9-7.179 10.51-0.397 1.06-0.345 1.09 0.642 0.29 0.955-0.78 1.043-0.78 0.789 0-0.362 1.11-2.82 1.53-2.771 0.47zm26.394 7.06c0.972-2.3 1.156-3.29 0.667-3.6-0.45-0.29-0.36-0.43 0.268-0.44 0.645-0.01 1.057-0.73 1.308-2.3 0.202-1.26 0.668-2.47 1.036-2.7 0.62-0.38 0.544 1.43-0.183 4.34-0.11 0.44 0.138 0.92 0.551 1.07 0.461 0.17 1.111-0.64 1.685-2.1 0.514-1.31 1.184-2.38 1.49-2.38 0.305 0 0.432 0.32 0.282 0.72-0.151 0.4-0.475 1.38-0.72 2.18-0.444 1.44-0.438 1.44 0.776 0.36 0.673-0.6 1.379-1.58 1.568-2.18 0.19-0.59 0.58-1.08 0.868-1.08s0.368 0.45 0.177 1.01c-0.19 0.56 0.472-0.23 1.47-1.76 1.898-2.9 2.146-4.09 1.321-6.33-0.951-2.58-1.265-4.54-0.728-4.54 0.297 0 0.707 0.99 0.91 2.19 0.6 3.55 1.202 4.14 2.694 2.66l1.257-1.26-1.238-1.74c-1.702-2.39-1.556-2.94 0.259-0.98 1.34 1.44 1.59 1.52 2.38 0.73 0.486-0.48 0.886-1.5 0.889-2.26 0.008-1.53-2.235-11.89-2.758-12.73-0.184-0.3-0.107-0.54 0.171-0.54 0.51 0 1.526 3.56 2.232 7.84 0.573 3.46 1.203 4.39 1.833 2.7 1.02-2.77-0.26-8.29-3.873-16.64l-3.515-8.13 0.053 6.64c0.04 4.96 0.406 8.04 1.443 12.13 0.765 3.01 1.39 6.08 1.39 6.82s0.207 1.47 0.459 1.63c0.253 0.15 0.396-0.68 0.319-1.86-0.136-2.07-0.126-2.08 0.343-0.39 0.756 2.72 0.692 3.77-0.228 3.77-0.904 0-1.141-0.73-3.315-10.3-0.744-3.28-1.579-5.95-1.856-5.95-0.277-0.01-0.316 1.76-0.088 3.91 0.229 2.16 0.233 3.74 0.009 3.53-0.572-0.56-0.918-10.45-0.353-10.1 0.255 0.16 0.634-4.21 0.843-9.71 0.505-13.327 0.48-19.448-0.081-19.795-0.507-0.313-0.944 9.035-0.971 20.795-0.009 4.13-0.108 7-0.219 6.39-0.111-0.62-0.382-1.32-0.602-1.55-0.697-0.75-0.053 10.71 0.829 14.77 0.465 2.14 0.82 4.62 0.788 5.51-0.037 1.03-0.351 0.35-0.853-1.85-0.437-1.92-1.009-4.24-1.271-5.15l-0.475-1.67-1.508 1.97c-0.83 1.09-2.653 2.7-4.051 3.59-1.96 1.24-3.031 2.56-4.675 5.79-1.173 2.3-2.31 5.16-2.525 6.36-0.216 1.19-0.625 2.17-0.909 2.17s-0.516 0.53-0.516 1.17c0 2.6 2.402 0.4 3.759-3.45 0.488-1.38 0.891-3.32 0.896-4.32 0.004-1 0.275-2.21 0.601-2.69 0.423-0.62 0.515 0.04 0.321 2.33-0.599 7.06-1.66 14.21-2.435 16.4-1.009 2.86-1.03 3.54-0.093 2.97 0.418-0.25 0.356 0.02-0.146 0.64-0.669 0.83-0.689 1.02-0.086 0.82 0.432-0.14 1.389-1.69 2.126-3.43zm19.195-27.1c-0.214-1.22-0.535-2.7-0.712-3.3-0.199-0.67-0.09-0.94 0.288-0.71 0.654 0.4 1.594 5.43 1.104 5.92-0.16 0.16-0.46-0.7-0.68-1.91zm-3.767-2.74c-0.025-0.61 0.112-0.96 0.305-0.76 0.193 0.19 0.214 0.69 0.046 1.11-0.185 0.46-0.323 0.32-0.351-0.35zm-0.581-2.32c-0.025-0.62 0.112-0.96 0.305-0.77 0.193 0.2 0.214 0.7 0.046 1.12-0.185 0.46-0.323 0.32-0.351-0.35zm3.335-0.08c-0.174-0.31-0.484-1.34-0.689-2.3l-0.372-1.74 0.909 1.63c0.501 0.9 0.811 1.93 0.689 2.3-0.127 0.38-0.354 0.43-0.537 0.11zm-4.252-2.01c-0.197-0.31-0.082-0.58 0.256-0.58 0.339 0 0.615 0.27 0.615 0.58 0 0.32-0.115 0.59-0.256 0.59-0.14 0-0.417-0.27-0.615-0.59zm-16.921 33.98c0.184-0.48 0.081-0.87-0.228-0.87-0.31 0-0.563 0.39-0.563 0.87s0.103 0.87 0.229 0.87c0.125 0 0.378-0.39 0.562-0.87zm40.216-9.31c0.16-1.09-1.16-1.11-2.06-0.03-0.57 0.68-0.46 0.77 0.6 0.49 0.99-0.26 1.18-0.15 0.81 0.48-0.26 0.45-0.25 0.61 0.02 0.37 0.28-0.25 0.56-0.84 0.63-1.31zm-110.16-0.27c2.4102-0.01 2.2022-0.31-0.5605-0.8-1.4581-0.27-2.3922-0.11-3.194 0.54-1.0964 0.89-1.086 0.91 0.3186 0.6 0.7985-0.18 2.3446-0.33 3.4359-0.34zm13.133-5.57c2.246-2.21 4.681-4.87 5.411-5.9 0.73-1.04 1.767-1.89 2.305-1.89 0.537-0.01 2.936-0.61 5.332-1.35 3.922-1.21 4.34-1.48 4.198-2.72-0.086-0.75-0.818-2.24-1.626-3.3-2.03-2.66-4.184-2.59-8.036 0.27-1.626 1.2-4.002 2.86-5.28 3.69-2.509 1.62-4.646 5.05-5.291 8.48-0.222 1.19-0.732 2.49-1.134 2.89-0.401 0.4-0.83 1.03-0.953 1.4-0.122 0.36-1.889 0.83-3.925 1.02-2.3403 0.23-3.7982 0.65-3.9628 1.15-0.1795 0.54 0.0765 0.68 0.8246 0.45 0.5967-0.19 1.4152-0.13 1.8202 0.12 0.404 0.26 1.972 0.29 3.484 0.09 2.411-0.33 3.253-0.87 6.833-4.4zm-15.624 3.49c5.3228-2.15 12.992-8.26 12.992-10.36 0-0.87-1.041-0.2-1.75 1.13-0.432 0.8-1.389 1.62-2.127 1.8-0.738 0.19-1.203 0.56-1.034 0.83 0.383 0.62-4.1304 3.67-4.8101 3.25-0.2732-0.17-0.8763-0.04-1.3401 0.29-0.6876 0.49-0.6557 0.54 0.1729 0.27 1.7768-0.57 1.0968 0.15-1.2835 1.37-2.3066 1.18-4.6406 1.69-3.0233 0.66 0.6249-0.39 0.5988-0.56-0.1354-0.84-1.089-0.41-0.6532-1.89 0.7124-2.41 0.7786-0.3 0.8273-0.23 0.2454 0.36-1.0509 1.06-0.9025 1.37 0.6532 1.37 1.3828 0 1.5941-0.53 0.748-1.89-0.5183-0.83-0.0291-1.89 0.8729-1.89 0.3348 0 0.4582 0.4 0.2744 0.88-0.5319 1.38 1.2573 1.03 2.8496-0.56 0.7836-0.78 1.4256-1.13 1.4256-0.77s0.617 0.08 1.372-0.63 1.691-1.21 2.079-1.12c0.389 0.1 1.114-0.42 1.61-1.15 0.825-1.2 0.821-1.28-0.043-0.95-0.52 0.2-0.813 0.58-0.65 0.84 0.163 0.27 0.031 0.65-0.294 0.85-0.324 0.2-0.59 0.08-0.59-0.27 0-0.36-0.609-0.23-1.451 0.32-0.86 0.57-2.163 0.85-3.2007 0.7-2.5648-0.38-8.3365 4.3-8.5964 6.97-0.21465 2.2 0.7264 2.41 4.3213 0.95zm1.6828-6.03c-0.2084-0.34 0.041-0.78 0.5541-0.97 1.2775-0.49 1.6749 0.05 0.6582 0.89-0.5723 0.48-0.9521 0.5-1.2123 0.08zm113.28 4.91c0.86-0.8 1.8-1.45 2.08-1.45 0.29 0 0.48-0.85 0.44-1.89-0.05-1.04 0.14-6.33 0.41-11.76 0.67-13.24 0.49-36.153-0.33-41.529-0.84-5.564-1.62-7.732-4.05-11.315-2.99-4.419-5.28-6.627-8.48-8.174-3.62-1.757-5.92-3.515-5.35-4.091 0.87-0.869 6.25-0.452 7.13 0.554 0.46 0.53 0.53 0.703 0.14 0.385-0.38-0.318-1.85-0.579-3.26-0.579-2.26 0-2.48 0.111-1.83 0.899 0.41 0.494 2.15 1.559 3.85 2.367 2.88 1.361 5.72 4.181 9.02 8.955 0.9 1.302 0.99 1.325 1 0.265 0.01-0.639-0.57-3.175-1.28-5.637-1.27-4.434-1.35-4.546-8.64-11.96-7.13-7.256-7.46-7.505-10.7-8.155-1.833-0.369-4.854-0.671-6.711-0.671-3.032 0-3.405 0.133-3.655 1.307-0.496 2.333-0.645 10.215-0.188 9.933 0.244-0.151 0.444-0.619 0.444-1.04 0-0.422 0.392-1.091 0.871-1.489 0.549-0.456 0.871-0.495 0.871-0.105 0 0.339-0.235 0.763-0.523 0.941s-0.807 1.173-1.154 2.212l-0.63 1.888 1.298-1.742c3.717-4.989 8.559-8.969 8.559-7.036 0 0.839-0.989 1.782-1.888 1.801-0.239 0.004-0.446 0.27-0.459 0.589-0.034 0.811-4.143 4.942-4.622 4.646-0.485-0.3-0.335 2.451 0.229 4.189 0.324 1.001 0.762 1.232 1.981 1.044 6.517-1.008 7.397-0.81 14.637 3.306 3.27 1.858 9.46 7.77 11.18 10.678 0.25 0.414 0.61 6.451 0.8 13.416 0.36 13.358-0.12 19.368-2.7 33.568-0.64 3.51-1.52 8.81-1.95 11.76l-0.78 5.37h1.34c0.73 0 2.04-0.65 2.9-1.45zm-0.05-6.58c0.16-2.98 0.49-5.78 0.74-6.23 0.59-1.06 0.17 6.96-0.5 9.62-0.36 1.43-0.43 0.42-0.24-3.39zm0.87-10.45c0-1.65 0.23-3 0.51-3 0.46 0 0.2 5.19-0.3 5.75-0.12 0.14-0.21-1.1-0.21-2.75zm0.67-5.33c0-0.8 0.13-1.12 0.29-0.72s0.16 1.05 0 1.45-0.29 0.07-0.29-0.73zm-28.546-57.195c0-1.755 12.146-10.988 13.146-9.991 0.16 0.165-1.37 1.235-3.42 2.378-2.04 1.143-4.359 2.8-5.148 3.683-0.789 0.882-2.076 2.061-2.861 2.62l-1.427 1.017 2.323-0.376c1.277-0.206 3.343-0.731 4.593-1.167 3.07-1.073 3.31-0.585 0.31 0.618-2.77 1.107-7.516 1.877-7.516 1.218zm-2.574-7.641c0.537-2.965 0.831-3.186 0.831-0.623 0 1.152-0.278 2.266-0.617 2.476-0.421 0.26-0.489-0.331-0.214-1.853zm1.429 1.25c-0.007-0.32 1.043-1.757 2.335-3.194s2.082-2.091 1.755-1.452c-0.86 1.681-4.073 5.331-4.09 4.646zm-40.497 80.736c-0.892-0.79-1.818-1.44-2.058-1.45-0.802-0.03-0.447 0.95 0.726 2.02 0.639 0.57 1.161 1.31 1.161 1.64 0 0.32-0.652-0.02-1.45-0.77l-1.451-1.37 0.937 2.75 0.937 2.75 1.41-2.07 1.41-2.08-1.622-1.42zm-36.063 3.32c1.332-1.55 1.743-3.05 0.729-2.66-0.463 0.17-0.841 0.68-0.841 1.13 0 0.44-0.538 0.81-1.196 0.81s-1.047 0.24-0.864 0.53c0.182 0.3-0.129 0.66-0.692 0.81-0.677 0.17-0.513 0.29 0.484 0.33 0.829 0.04 1.9-0.39 2.38-0.95zm102.94-18.14c0.52-3.33 0.64-5.72 0.32-6.04s-0.3-0.95 0.04-1.6c0.4-0.74 0.38-1.07-0.06-1.07-0.36 0-0.56-0.71-0.46-1.6 0.1-0.9 0.5-1.54 0.91-1.45 0.42 0.08 0.71-0.41 0.68-1.17-0.02-0.71-0.18-0.97-0.34-0.57s-0.51 0.59-0.77 0.43-1.06 0.9-1.77 2.36c-1.18 2.45-1.25 3.21-0.93 9.73 0.24 4.67 0.17 6.78-0.21 6.2s-0.54 1.5-0.51 6.39l0.05 7.26 1.1-6.68c0.61-3.67 1.48-9.16 1.95-12.19zm10.62 14.96l1.63 0.05-0.16-5.91c-0.08-3.25-0.25-11.79-0.38-18.98-0.22-12.22-1.28-23.293-3.23-33.678-1.06-5.616-2.53-10.53-2.95-9.845-0.26 0.405-0.56 0.098-0.78-0.79-0.2-0.799-0.54-1.912-0.76-2.473-0.24-0.639-0.16-0.88 0.22-0.646 0.91 0.561-1.7-6.689-2.88-7.988-0.96-1.063-1.24-1.792-1.08-2.794 0.03-0.239-0.15-0.435-0.4-0.435-0.26 0-1.67-1.634-3.14-3.63-5.02-6.825-6.92-7.691-14.98-6.853-4.424 0.46-11.285 2.663-13.026 4.184-0.299 0.261 1.922 0.317 4.936 0.124 4.296-0.275 6.224-0.132 8.93 0.663 3.22 0.944 4.01 1.577 11.73 9.335 8.7 8.755 9.52 9.796 9.46 11.963-0.04 1.281-0.07 1.29-0.59 0.183-0.69-1.439-0.4 0.492 0.91 6.098 1.73 7.41 2.16 15.437 2.13 39.712l-0.04 24.32 1.42-1.33c0.82-0.77 2.09-1.3 3.03-1.28zm-2.13-18.69c-0.02-0.61 0.11-0.96 0.31-0.76 0.19 0.19 0.21 0.69 0.04 1.11-0.18 0.46-0.32 0.33-0.35-0.35zm0.24-11.16c0.2-2.28 0.09-5.81-0.23-7.84-0.83-5.217-1.16-10.956-0.64-10.956 0.42 0 0.79 3.591 1.53 15.166 0.25 3.86 0.15 5.92-0.32 6.68-0.55 0.87-0.62 0.27-0.34-3.05zm-1.3-23.151c-0.01-1.278 0.11-1.869 0.25-1.314 0.15 0.555 0.15 1.601 0.01 2.323-0.13 0.722-0.25 0.268-0.26-1.009zm-0.63-4.646c-0.06-0.958-0.24-2.788-0.41-4.065-0.26-2.023-0.22-2.139 0.33-0.894 0.34 0.787 0.52 2.616 0.41 4.066-0.14 1.641-0.26 1.978-0.33 0.893zm-1.55-9.001c-0.2-0.32-0.08-0.581 0.26-0.581s0.61 0.261 0.61 0.581c0 0.319-0.11 0.58-0.25 0.58s-0.42-0.261-0.62-0.58zm-2.61-7.052c0-0.366-3.17-3.735-7.04-7.487-6.66-6.455-7.65-7.958-5.7-8.603 0.67-0.223 0.7-0.11 0.12 0.583-0.77 0.937 0.7 2.689 7.73 9.202 3.73 3.45 6.51 6.969 5.51 6.969-0.34 0-0.62-0.299-0.62-0.664zm7.63 74.54c-0.42-0.14-1.04 0.02-1.38 0.36-0.43 0.43-0.2 0.5 0.76 0.25 0.79-0.2 1.05-0.47 0.62-0.61zm-70.357-6.03c3.061-4.2 2.873-4.32-1.88-1.18-2.495 1.64-2.995 2.95-0.581 1.52l1.597-0.95-1.371 1.23c-1.445 1.29-2.984 1.62-2.984 0.64 0-0.69 1.496-2.23 3.497-3.6l1.439-0.99-2.067-0.03c-1.137-0.01-2.574-0.41-3.194-0.88-1.705-1.29-1.881-1.1-1.403 1.51 0.242 1.33 0.215 3.19-0.059 4.14-0.847 2.96 1.121 5.18 3.077 3.47 0.549-0.47 2.318-2.67 3.929-4.88zm-8.986 1.49c1.193-1.29 1.352-1.9 1.057-4.05-0.243-1.77-0.084-2.94 0.527-3.87 0.9-1.38 1.443-3.91 1.865-8.71 0.134-1.51 0.376-2.97 0.538-3.23 0.163-0.27 0.345-2.82 0.406-5.67 0.148-6.99 0.302-7.35 2.754-6.31 1.165 0.49 1.768 1.07 1.524 1.46-0.288 0.47-0.54 0.44-0.88-0.11-0.262-0.43-0.659-0.59-0.882-0.37-0.222 0.22-0.087 0.79 0.301 1.25 0.614 0.74 1.13 0.7 4.002-0.37 3.158-1.17 14.268-7.96 13.795-8.44-0.125-0.12-1.253 0.45-2.506 1.28-2.141 1.42-5.958 2.89-5.958 2.3 0-0.15 0.588-0.51 1.306-0.8 0.853-0.34 0.985-0.53 0.379-0.56-0.51-0.02-1.525 0.48-2.256 1.12-0.794 0.69-1.823 1.03-2.557 0.86-0.675-0.16-2.012-0.05-2.97 0.25-1.32 0.41-1.46 0.57-0.581 0.66 0.639 0.06 1.406 0.07 1.705 0.01s1.2 0.06 2.002 0.26c1.16 0.29 1.287 0.48 0.618 0.91-0.862 0.55-2.507 0.38-6.746-0.71-2.709-0.69-2.637-0.24-1.282-8.041 1.228-7.07 2.157-12.718 2.816-17.131 1.772-11.87 2.931-15.442 6.649-20.492 3.251-4.416 7.147-7.216 13.09-9.408 2.648-0.976 8.506-3.533 13.017-5.682l8.201-3.907 5.619 0.062c4.63 0.052 5.99 0.283 7.73 1.307 2.51 1.484 2.41 1.472 2.84 0.343 0.23-0.594 0.1-0.777-0.37-0.538-0.4 0.2-0.27-0.007 0.28-0.461 0.95-0.773 0.93-0.895-0.29-1.977-1.58-1.41-4.68-2.3-9.86-2.827-2.61-0.267-3.92-0.196-3.92 0.212 0 0.337-0.45 0.587-1.01 0.556-0.561-0.03-3.982 1.292-7.604 2.94s-6.728 2.996-6.903 2.996c-0.174 0 0.359-0.677 1.186-1.503 0.827-0.827 1.758-1.347 2.068-1.155 0.805 0.498 3.59-0.881 3.166-1.568-0.194-0.314 0.011-0.436 0.454-0.271 0.444 0.164 1.983-0.386 3.42-1.223 2.258-1.315 3.285-1.523 7.553-1.531 2.71-0.004 5.85 0.178 6.97 0.406 1.13 0.23 0.61-0.076-1.17-0.69-6.02-2.084-10.066-1.433-20.109 3.233-3.151 1.464-7.629 3.283-9.95 4.042-3.031 0.991-5.732 2.502-9.582 5.361-8.482 6.298-11.518 9.692-13.025 14.557-0.919 2.968-5.638 21.819-6.273 25.058-0.219 1.117-1.079 4.253-1.912 6.968-1.472 4.804-1.515 5.384-1.57 21.484-0.054 15.71-0.314 19.17-1.443 19.17-0.271 0-0.201-0.77 0.155-1.72 0.523-1.38 0.474-1.91-0.258-2.75-0.497-0.58-1.575-2.49-2.394-4.26-1.613-3.47-2.603-4.56-5.471-6.01-3.554-1.8-6.543-1.11-11.344 2.63-1.513 1.18-3.603 2.32-4.646 2.54-2.872 0.62-5.095 2.11-6.012 4.05-0.453 0.96-1.586 2.79-2.517 4.06-0.93 1.28-1.608 2.41-1.506 2.51 0.253 0.26 4.856-2.1 6.832-3.49 0.879-0.62 1.597-0.87 1.597-0.56s-1.22 1.37-2.712 2.36c-3.02 2-2.905 2.31 0.302 0.81 1.792-0.84 4.897-3.02 11.926-8.37 2.387-1.81 4.029-1.78 6.343 0.13 1.179 0.97 2.144 2.12 2.144 2.56 0 0.43 0.306 0.98 0.679 1.21 0.449 0.28 0.561 0.11 0.331-0.49-0.192-0.5-0.186-1.07 0.013-1.27s0.713 1.01 1.14 2.68c0.869 3.39 2.129 5.12 3.734 5.12 0.589 0 1.072 0.26 1.072 0.58s-0.327 0.58-0.726 0.59c-0.484 0.01-0.436 0.2 0.145 0.57 1.537 0.99 3.501 0.62 4.944-0.93zm-33.4-5.93c0-0.25 0.384-0.97 0.853-1.59 0.87-1.15 1.172-0.51 0.537 1.14-0.364 0.95-1.39 1.28-1.39 0.45zm2.904-1.83c0-0.55 1.836-1.76 2.665-1.76 0.23 0-0.054 0.52-0.633 1.16-1.126 1.24-2.032 1.51-2.032 0.6zm54.588-83.557c0-0.782 2.858-2.525 3.665-2.234 0.38 0.136 1.178-0.003 1.774-0.311 0.813-0.419 1.02-0.367 0.828 0.209-0.141 0.422-1.021 0.925-1.955 1.117s-2.287 0.666-3.005 1.052c-0.719 0.386-1.307 0.461-1.307 0.167zm7.162-2.734c0-0.608 0.363-0.827 1.066-0.643 0.586 0.153 0.919 0.041 0.74-0.248-0.179-0.29-0.07-0.527 0.242-0.527s0.937-0.142 1.389-0.315c0.488-0.187 0.822 0.045 0.822 0.572 0 0.488-0.48 1.022-1.068 1.187-0.587 0.164-1.545 0.433-2.129 0.597-0.708 0.199-1.062-0.008-1.062-0.623zm32.909-2.545c0-0.301 0.26-0.706 0.57-0.901 0.33-0.204 0.43 0.029 0.23 0.546-0.38 1.006-0.8 1.19-0.8 0.355zm-102.79 96.656c0.403-0.49 0.466-0.87 0.142-0.87-0.319 0-0.906 0.39-1.3036 0.87-0.4033 0.49-0.4662 0.87-0.1422 0.87 0.3194 0 0.9058-0.39 1.3038-0.87zm2.323-0.32c0-0.34-0.262-0.46-0.581-0.26s-0.581 0.47-0.581 0.61c0 0.15 0.262 0.26 0.581 0.26s0.581-0.28 0.581-0.61zm92.486-6.65c1.1-1.91 2.17-4.34 2.37-5.4 0.44-2.29-1.62-12.24-3.16-15.3-1.05-2.08-7.93-11.529-8.398-11.529-0.132 0 0.424 1.499 1.236 3.339 1.929 4.37 5.532 9.92 6.642 10.22 0.66 0.19 0.62 0.26-0.14 0.31-1.24 0.08-4.06-3.63-6.351-8.35-0.931-1.92-1.568-2.83-1.416-2.03 0.152 0.79 0.418 3.67 0.591 6.38 0.362 5.69-0.423 3.58-1.186-3.18-0.454-4.02-0.465-4.04-0.778-1.46-0.174 1.44-0.086 3.79 0.195 5.22 0.282 1.44 0.573 3.4 0.648 4.36s0.958 3.51 1.963 5.68c1.004 2.16 1.826 4.1 1.826 4.3 0 0.78 3.018 5.48 3.328 5.18 0.17-0.17-0.1-0.95-0.61-1.72-2.48-3.79-4.54-15.36-2.964-16.67 0.514-0.43 1.184 0.19 2.464 2.29 1.94 3.14 3.85 8.78 2.98 8.78-0.31 0-0.57-0.2-0.6-0.44s-0.11-1.02-0.19-1.74-0.36-1.5-0.61-1.74-0.28 0.22-0.07 1.02c0.38 1.39 0.36 1.4-0.5 0.32-0.69-0.86-0.74-1.23-0.2-1.56 0.53-0.33 0.36-1.08-0.66-2.94-0.76-1.38-1.6-2.75-1.87-3.05-0.739-0.82-0.608 4.34 0.2 7.83 0.56 2.42 0.99 3.13 2.21 3.55 1.76 0.61 3.51 3.28 3.42 5.23-0.04 0.97-0.23 0.73-0.65-0.85-0.51-1.94-2.95-4.49-3.64-3.8-0.14 0.14 0.39 1.64 1.18 3.33 1.5 3.23 1.83 4.44 0.81 2.97-0.45-0.65-0.54-0.32-0.35 1.28 0.14 1.22-0.01 2.24-0.36 2.36-0.34 0.11-0.42 0.53-0.17 0.93 0.55 0.9 0.38 1.09 2.81-3.12zm-9.443-16.55c0-0.32 0.262-0.58 0.581-0.58s0.581 0.26 0.581 0.58-0.262 0.58-0.581 0.58-0.581-0.26-0.581-0.58zm7.263-4.06c-0.2-0.32-0.09-0.58 0.25-0.58s0.62 0.26 0.62 0.58-0.12 0.58-0.26 0.58-0.42-0.26-0.61-0.58zm-47.281 21.53c-0.635-0.41 0.047-1.37 3.049-4.33 2.127-2.1 3.868-4.06 3.868-4.36s2.348-2.42 5.219-4.71c2.87-2.29 6.685-5.77 8.477-7.74 4.718-5.19 14.901-20.771 14.1-21.573-0.123-0.122-2.695 3.445-5.716 7.927-5.321 7.896-13.166 17.806-14.134 17.866-0.261 0.02-1.306 0.66-2.323 1.42-2.294 1.72-9.127 5.17-9.501 4.8-0.152-0.15 1.9-1.4 4.56-2.77 6.13-3.17 12.456-9.39 18.337-18.05 2.315-3.402 4.21-6.329 4.21-6.501 0-0.421-10.22 5.801-12.776 7.771-3.473 2.69-12.36 7.79-13.424 7.71-1.751-0.13-3.018 2.66-4.351 9.58-0.194 1.01 0.107 1.45 1.292 1.9 1.905 0.73 1.639 1.14-0.473 0.74-0.861-0.17-1.68-0.73-1.819-1.26-0.14-0.52-0.288 0.09-0.329 1.37-0.042 1.28-0.239 2.98-0.439 3.77-0.353 1.42-0.31 1.41 1.621-0.42 1.977-1.87 5.727-3.2 5.727-2.03 0 0.33-0.482 0.48-1.071 0.32-0.674-0.17-2.058 0.55-3.738 1.95-3.077 2.56-3.4 3.36-1.144 2.85 1.517-0.34 1.541-0.32 0.47 0.52-0.62 0.48-1.731 0.88-2.468 0.88s-1.341 0.23-1.341 0.51c0 0.79 2.476 2.33 3.775 2.35 0.903 0.02 0.979-0.09 0.342-0.49zm1.69-5.52c0-0.61 1.75-2.26 2.064-1.95 0.147 0.15-0.258 0.74-0.899 1.32-0.64 0.58-1.165 0.87-1.165 0.63zm3.116-13.99c2.105-1.09 2.741-1.08 1.274 0.03-0.62 0.47-1.535 0.85-2.032 0.85-0.498-0.01-0.157-0.4 0.758-0.88zm-0.212-1.67c0-0.12 0.523-0.36 1.162-0.52 0.64-0.17 1.016-0.07 0.837 0.22-0.312 0.51-1.999 0.76-1.999 0.3zm0.789 20.58c0.782-0.29 1.577-0.79 1.768-1.1 0.34-0.55-5.472 1.45-6.041 2.08-0.347 0.38 2.277-0.22 4.273-0.98zm0.026-1.54c0.928-0.45 1.973-0.83 2.323-0.86 0.57-0.04 4.49-4.36 15.891-17.53 2.001-2.31 4.98-6.29 6.619-8.84 1.64-2.56 3.464-5.358 4.056-6.223 0.591-0.866 1.074-2.434 1.073-3.485-0.002-1.89-0.023-1.876-1.993 1.392-6.662 11.046-14.202 20.076-21.743 26.046-1.398 1.11-2.706 2.14-2.907 2.3s-1.118 1.3-2.038 2.53c-0.92 1.24-2.617 3.15-3.771 4.25-1.922 1.84-1.977 1.97-0.648 1.62 0.799-0.21 2.211-0.75 3.138-1.2zm-15.62-7.73l-0.416-5.81-2.527 2.11-2.528 2.11 1.879 2.08c1.034 1.15 2.234 2.94 2.667 3.98 0.433 1.05 0.912 1.78 1.065 1.63 0.152-0.15 0.089-2.9-0.14-6.1zm65.962 2.71c2.08-3.06 2.46-4.06 2.42-6.37-0.09-5.57-4.08-14.91-8.39-19.619-1.32-1.437-3.82-4.377-5.56-6.533-4.364-5.393-4.788-5.335-1.072 0.145 2.952 4.349 5.002 8.817 4.922 10.707-0.06 1.38-0.14 1.48-0.33 0.46-0.14-0.72-0.48-1.18-0.74-1.01-0.86 0.53-5.048-4.809-7.539-9.596-1.323-2.544-2.508-4.626-2.632-4.626-0.501 0 1.732 5.669 3.088 7.84 0.798 1.278 3.148 4.542 5.223 7.262 4.54 5.94 5.48 7.96 7.07 15.09 0.67 3.02 1.32 5.58 1.43 5.7 0.68 0.67 1.58-7.29 1.33-11.79-0.25-4.64-0.2-5 0.43-3.2 1.61 4.62 1.61 7.34 0 12.36-0.85 2.63-1.78 5.02-2.07 5.33-0.55 0.56-0.73 1.48-0.29 1.48 0.13 0 1.35-1.64 2.71-3.63zm-4.31-13.94c-0.18-1.99-0.51-5.07-0.72-6.82-0.3-2.51-0.23-3.05 0.33-2.52 0.39 0.37 0.78 2.2 0.86 4.06 0.08 1.87 0.34 4.64 0.58 6.15 0.27 1.74 0.22 2.76-0.14 2.76-0.32 0-0.73-1.63-0.91-3.63zm1.35-4.45c0-0.3-0.17-0.99-0.39-1.55-0.24-0.64-0.16-0.87 0.22-0.64 0.81 0.5 1.38 2.72 0.7 2.72-0.29 0-0.53-0.24-0.53-0.53zm-22.645 10.98c0.342-0.63 0.491-1.16 0.331-1.16s-0.57 0.53-0.912 1.16c-0.342 0.64-0.491 1.17-0.331 1.17s0.57-0.53 0.912-1.17zm-29.045-7.46c0.005-0.12-0.383-0.06-0.862 0.13-0.602 0.23-0.897-0.07-0.953-0.96-0.045-0.71-0.274 0.15-0.509 1.91-0.235 1.75-0.291 3.82-0.125 4.58 0.246 1.13 0.505 0.75 1.372-2.03 0.588-1.88 1.072-3.52 1.077-3.63zm60.07 3.54c0.36-1.13 0.2-1.3-1.15-1.3-1.33 0-1.5 0.19-1.2 1.3 0.19 0.72 0.35 1.83 0.35 2.46 0.01 1.14 0.01 1.14 0.8 0 0.44-0.63 0.98-1.74 1.2-2.46zm-27.9-2.2c0.198-0.52 0.101-0.75-0.228-0.55-0.316 0.2-0.574 0.6-0.574 0.9 0 0.84 0.416 0.65 0.802-0.35zm28.74-0.07c1.3-0.35 1.36-0.56 1.05-3.62-0.19-1.79-0.51-3.91-0.71-4.7-0.3-1.18-0.24-1.29 0.31-0.58 1.38 1.77 0.14-4.049-1.66-7.784-1.91-3.94-6.65-8.823-10.46-10.768-2.74-1.395-11.1-4.198-11.815-3.96-0.306 0.102 1.363 1.071 3.708 2.154 4.847 2.241 4.857 2.243 4.437 2.659-0.17 0.17-2.02-0.483-4.109-1.451-2.092-0.968-3.972-1.76-4.179-1.76-0.918 0 0.559 1.283 2.781 2.416 4.657 2.372 6.987 4.068 6.237 4.531-0.51 0.313-0.26 0.794 0.84 1.659 0.85 0.671 1.38 1.488 1.18 1.817-0.22 0.344-0.02 0.462 0.46 0.278 0.95-0.365 9.36 8.479 10.99 11.559 0.57 1.07 1.09 2.96 1.17 4.21 0.13 2.17 0.06 2.28-1.61 2.28-1.43 0-1.77-0.27-1.9-1.46-0.44-4.08-2.8-10.461-4.18-11.31-0.32-0.198-0.05 0.871 0.59 2.37 0.65 1.51 1.33 4.33 1.53 6.28 0.54 5.49 1.33 6.25 5.34 5.18zm-13.86-25.745c-0.48-0.31-0.61-0.563-0.29-0.563s0.97 0.253 1.45 0.563c0.48 0.309 0.61 0.563 0.29 0.563s-0.97-0.254-1.45-0.563zm13.1 21.295c-0.41-2.55-1.31-4.05-2.13-3.55-0.28 0.18-0.1 0.93 0.39 1.68 0.6 0.92 0.68 1.43 0.24 1.58-0.46 0.16-0.47 0.67-0.03 1.84 0.92 2.41 1.99 1.33 1.53-1.55zm-6.38-5.48c-1.37-4.103-2.91-6.298-5.68-8.075-1.37-0.879-3.54-2.392-4.81-3.363l-2.31-1.764 1.24 1.742c0.68 0.958 3.36 4.222 5.96 7.254 2.59 3.036 5.03 6.246 5.42 7.136 1.11 2.54 1.25 0.28 0.18-2.93zm-53.181 1.58c0 0.44 0.328 0.36 0.913-0.22 0.502-0.5 1.351-0.91 1.887-0.91 0.849 0.01 0.862 0.09 0.104 0.64-1.016 0.73-1.79 0.93 6.969-1.82 3.353-1.05 6.413-2.151 6.798-2.449s0.973-0.373 1.306-0.167c0.334 0.206 0.607 0.098 0.607-0.24s0.37-0.615 0.822-0.615c0.453 0 0.91-0.218 1.017-0.484 0.106-0.266 1.892-1.442 3.968-2.614s4.689-2.936 5.807-3.92l2.033-1.789-2.764 1.821c-1.557 1.027-3.078 1.641-3.484 1.407-0.397-0.228-0.523-0.196-0.281 0.071 0.242 0.266-0.28 0.96-1.161 1.541-1.809 1.192-2.734 1.376-2.147 0.425 0.274-0.443 0.012-0.434-0.853 0.029-0.686 0.367-1.113 0.886-0.948 1.153s-0.285 0.643-1 0.834c-2.007 0.538-2.372 0.436-1.629-0.459 0.802-0.967 8.411-5.564 9.208-5.564 0.784 0 3.607-2.306 3.607-2.946 0-0.296-0.881-0.473-1.958-0.393-1.287 0.095-1.863 0.393-1.68 0.871 0.153 0.399-0.12 0.726-0.607 0.726s-0.972 0.196-1.079 0.435c-0.26 0.585-4.361 3.63-4.89 3.63-0.231 0-0.005-0.458 0.5-1.017 0.506-0.559 0.873-1.231 0.816-1.494s0.942-1.131 2.219-1.929l2.323-1.45-2.032 0.39c-1.912 0.367-4.264 1.977-12.396 8.49-3.263 2.614-5.417 3.436-12.575 4.797-0.799 0.16-0.08 0.18 1.597 0.05 1.919-0.15 3.049 0 3.049 0.39 0 0.34 0.718 0.15 1.596-0.41l1.597-1.029-1.124 1.269c-0.619 0.7-1.487 1.14-1.93 0.97-0.442-0.17-1.292-0.05-1.888 0.27-0.688 0.37-1.211 0.37-1.429 0.02-0.387-0.63-2.131-0.13-2.737 0.78-0.641 0.96 0.137 1.63 1.03 0.89 0.628-0.52 0.819-0.51 0.819 0.02zm9.873-4.549c0-0.28 2.476-2.371 5.502-4.646 5.558-4.177 7.873-5.433 4.652-2.523-0.962 0.87-1.498 1.386-1.19 1.146 1.011-0.787 1.647-0.455 0.886 0.462-0.41 0.494-1.121 0.753-1.58 0.577-0.967-0.371-5.525 3.026-5.063 3.774 0.17 0.275-0.203 0.775-0.83 1.11-1.389 0.744-2.377 0.785-2.377 0.1zm4.936-2.702c0.958-0.785 2.003-1.42 2.323-1.41 0.319 0.01-0.203 0.661-1.162 1.446-0.958 0.786-2.003 1.42-2.323 1.41-0.319-0.01 0.204-0.66 1.162-1.446zm29.572 3.106c-1.48-2.87-7.059-11.344-7.763-11.779-1.151-0.711-0.613 0.833 1.961 5.634 2.766 5.158 6.232 9.75 6.572 8.71 0.12-0.35-0.23-1.5-0.77-2.565zm17.46-3.553c-0.53-1.327-1.74-3.561-2.68-4.963-0.95-1.403-1.62-2.652-1.5-2.775 0.39-0.394 2.01 1.724 3.6 4.719l1.54 2.904-0.38-2.323c-0.21-1.278-0.37-2.977-0.34-3.775 0.04-1.144-0.07-1.267-0.52-0.581-0.44 0.675-0.58 0.479-0.62-0.871-0.17-5.585-4.24-10.469-11.81-14.165-4.32-2.111-5.36-2.385-9.004-2.385-2.267 0-4.122 0.211-4.122 0.469 0 0.259 1.275 0.489 2.834 0.513 1.558 0.023 3.322 0.34 3.922 0.703 0.89 0.541 0.69 0.595-1.089 0.295-3.619-0.609-5.667-0.511-5.667 0.273 0 0.281 1.576 0.625 3.502 0.764 3.874 0.28 6.294 1.748 4.624 2.802-0.47 0.303-2.239 0.555-3.915 0.56-1.677 0.004-3.049 0.258-3.049 0.564 0 0.305 2.156 1.235 4.791 2.066 8.903 2.808 14.903 7.399 18.093 13.851 1.15 2.326 2.12 4.733 2.17 5.348 0.06 0.865 0.13 0.815 0.33-0.231 0.14-0.742-0.17-2.435-0.71-3.762zm-6.91-10.553c-0.86-1.126-1.31-2.048-0.99-2.048 0.68 0 3.22 3.432 2.82 3.824-0.15 0.15-0.97-0.649-1.83-1.776zm-7.05-4.614c-0.62-0.453-0.91-1.041-0.65-1.306 0.71-0.703 6.78-0.483 8.74 0.317 2.63 1.07 1.5 1.275-1.97 0.36-1.73-0.457-3.78-0.67-4.56-0.474-1.35 0.338-1.37 0.397-0.35 1.142 0.59 0.432 0.81 0.785 0.49 0.785s-1.08-0.371-1.7-0.824zm-41.675 16.061c0.716-0.874 1.311-1.316 1.323-0.98 0.011 0.335-0.293 0.923-0.676 1.306s-0.501 0.697-0.262 0.697c1.064 0 4.214-2.052 7.807-5.086 5.006-4.226 5.569-4.786 4.812-4.786-0.339 0-1.316 0.784-2.17 1.742-1.479 1.661-3.022 2.441-2.201 1.113 0.662-1.071-2.869 1.014-4.097 2.419-0.949 1.087-0.761 1.03 1.034-0.312 1.206-0.902 2.324-1.509 2.484-1.349 0.679 0.678-4.152 3.596-6.1 3.685-2.665 0.12-7.746 1.514-8.296 2.274-0.925 1.281-0.329 1.604 2.298 1.244 2.007-0.276 3.09-0.802 4.044-1.967zm-0.563-2.25c1.368-0.522 2.488-1.185 2.488-1.472s-0.588-0.206-1.307 0.18c-0.719 0.387-2.352 1.032-3.63 1.434-1.277 0.402-1.809 0.748-1.18 0.769 0.628 0.022 2.261-0.388 3.629-0.911zm-2.158-0.823c5.247-1.646 5.807-1.739 5.807-0.96 0 0.376 0.588-0.145 1.307-1.159 2.1-2.962 7.098-5.673 10.569-5.732 9.296-0.16 9.291-0.159 8.263-1.295-0.521-0.575-1.065-1.686-1.208-2.468-0.144-0.782-0.281-1.522-0.305-1.645-0.061-0.316-2.366 2.66-2.366 3.056 0 0.179 0.435 0.158 0.967-0.046 0.649-0.249 0.828-0.148 0.546 0.309-0.42 0.68-2.674 0.973-2.674 0.347 0-0.182 0.657-1.454 1.461-2.825 1.233-2.103 1.334-2.598 0.646-3.169-0.649-0.538-1.128-0.303-2.356 1.156-2.026 2.408-1.399 2.94 0.911 0.773 1.4-1.314 1.668-1.422 1.179-0.476-0.348 0.674-1.287 1.654-2.088 2.178-3.26 2.136-3.547 0.544-0.598-3.319 2.446-3.202 2.011-3.439-1.188-0.647-1.604 1.401-2.277 2.43-2.177 3.328 0.08 0.716-0.401 1.954-1.07 2.753-1.148 1.37-1.195 1.095-0.223-1.326 0.986-2.459-2.478 0.449-5.78 4.851-1.894 2.525-3.559 4.475-3.701 4.333-0.33-0.33 5.682-8.3 7.618-10.097 0.81-0.752 1.75-1.196 2.09-0.986 0.371 0.23 0.485 0.038 0.285-0.483-0.283-0.737-0.646-0.691-2.461 0.31-2.296 1.265-4.245 3.376-3.793 4.107 0.154 0.249 0.003 0.452-0.335 0.452-1.128 0-0.634-1.508 0.982-2.995 0.878-0.809 3.321-2.416 5.428-3.572 5.213-2.859 5.449-3.204 4.606-6.72-0.396-1.65-0.517-3.988-0.285-5.53 0.418-2.787-0.166-4.265-2.674-6.774-2.086-2.085-7.018-0.996-10.142 2.24-2.781 2.881-4.318 6-7.171 14.555-2.559 7.67-2.744 8.501-1.764 7.895 0.345-0.213 0.179 0.49-0.37 1.563l-0.999 1.951 1.218-1.085c1.164-1.037 6.853-11.4 6.259-11.4-0.157 0-1.247 1.829-2.422 4.065s-2.395 4.065-2.712 4.065c-0.316 0-0.193-0.588 0.274-1.307 0.467-0.718 1.958-3.332 3.313-5.807 1.356-2.475 2.717-4.5 3.027-4.5 0.309 0 0.378-0.327 0.152-0.726-0.303-0.538-0.229-0.56 0.287-0.086 0.534 0.491-0.037 2.189-2.44 7.259-1.725 3.64-3.852 7.468-4.728 8.506-0.875 1.038-1.45 1.888-1.277 1.888 1.119 0 3.197-1.507 4.302-3.12 0.714-1.042 2.461-2.766 3.883-3.831 2.69-2.016 6.445-6.277 5.959-6.763-0.154-0.154-1.174 0.765-2.267 2.042-1.767 2.065-5.119 4.121-5.119 3.14 0-0.515 5.449-10.67 7.291-13.587 0.827-1.31 1.652-2.233 1.834-2.05 0.183 0.182 0.061 0.664-0.27 1.071s-1.189 1.785-1.906 3.063c-4.319 7.689-5.305 9.677-4.97 10.012 0.205 0.206 1.531-0.917 2.946-2.496s2.584-2.512 2.598-2.074c0.021 0.643 0.195 0.657 0.897 0.074 1.134-0.94 1.122-1.801-0.019-1.364-0.573 0.22-0.23-0.72 0.962-2.637 2.084-3.354 2.989-3.703 1.041-0.402-0.691 1.171-1.113 2.274-0.937 2.45 0.175 0.175 0.729-0.473 1.229-1.44 0.5-0.968 1.226-1.955 1.613-2.194 0.99-0.612-2.188 4.729-4.88 8.201-1.238 1.597-2.248 3.165-2.245 3.484s-1.358 1.968-3.025 3.663c-2.909 2.959-4.831 4.184-7.967 5.08-1.376 0.393-2.294 1.23-2.314 2.109-0.005 0.219 0.821 0.48 1.834 0.581 1.014 0.1 1.963 0.548 2.11 0.996 0.207 0.628-0.144 0.731-1.54 0.452-1.433-0.287-1.936-0.124-2.422 0.783-0.336 0.629-0.538 1.142-0.447 1.14 0.092-0.002 1.865-0.537 3.941-1.188zm0-3.233c0-0.377 8.298-4.311 8.553-4.055 0.151 0.15-1.255 1.073-3.123 2.051-2.453 1.283-2.913 1.684-1.656 1.443 1.312-0.251 1.528-0.185 0.875 0.271-0.752 0.523-4.649 0.766-4.649 0.29zm9.872-10.361c0-0.369 6.243-4.567 8.566-5.76 1.038-0.534 1.887-0.72 1.887-0.414s-0.54 0.728-1.199 0.938c-0.66 0.209-2.884 1.533-4.942 2.942-3.642 2.494-4.312 2.85-4.312 2.294zm-7.267-6.713c-0.841-1.361 1.716-6.741 4.893-10.295 1.785-1.996 3.453-3.629 3.707-3.629 0.254-0.001-0.138 0.601-0.871 1.336-2.976 2.985-5.437 6.381-6.099 8.415-0.546 1.681-0.546 1.915 0 1.068 2.053-3.179 2.578-3.143 1.007 0.069-1.855 3.794-2.038 4.005-2.637 3.036zm5.262-5.268c0.511-0.988 1.05-1.675 1.199-1.527 0.395 0.396-1.036 3.323-1.625 3.323-0.276 0-0.084-0.808 0.426-1.796zm1.424-2.525c0-0.141 0.262-0.417 0.581-0.615 0.319-0.197 0.581-0.082 0.581 0.256 0 0.339-0.262 0.615-0.581 0.615s-0.581-0.115-0.581-0.256zm1.162-1.942c0-0.289 0.56-1.023 1.246-1.632 1.237-1.098 1.241-1.097 0.577 0.168-0.74 1.412-1.823 2.281-1.823 1.464zm31.173 26.526c-1.18-0.975-2.01-2.002-1.83-2.282 0.37-0.6-2.643-2.242-3.527-1.922-0.334 0.12-1.22-0.352-1.969-1.049-0.749-0.698-1.239-0.903-1.091-0.457 0.149 0.447 2.472 2.416 5.163 4.376 5.014 3.651 7.114 4.511 3.254 1.334zm-9.652-5.42c0.019-1.296 0.126-3.402 0.239-4.68 0.112-1.278-0.099-3.368-0.47-4.646l-0.674-2.323-0.356 3.775c-0.294 3.117-0.345 2.743-0.291-2.148 0.087-7.816-0.496-8.39-3.712-3.654-2.118 3.118-2.557 3.49-3.274 2.773-0.686-0.685-0.732-1.857-0.265-6.818 0.31-3.294 0.824-6.25 1.141-6.568 0.863-0.863 1.442 3.096 1.092 7.462-0.164 2.041-0.103 3.591 0.135 3.444 1.019-0.63 1.868-5.747 1.671-10.073-0.116-2.549-0.079-4.554 0.082-4.454 0.161 0.099 0.324-0.514 0.364-1.361 0.039-0.848-0.058-1.185-0.216-0.75-0.242 0.668-0.373 0.668-0.841 0-0.372-0.531-0.467 0.124-0.289 1.992 0.183 1.913 0.06 2.717-0.391 2.569-0.362-0.119-0.799-1.502-0.973-3.075l-0.314-2.858-0.443 2.903c-0.744 4.881-0.976 5.609-1.708 5.361-0.776-0.263-0.935-5.329-0.215-6.861 0.289-0.614 0.153-0.919-0.409-0.919-0.508 0-0.708 0.344-0.507 0.869 0.208 0.541 0.092 0.72-0.306 0.475-0.711-0.44-4.784 1.309-4.784 2.054 0 0.26 0.253 0.473 0.562 0.473 0.31 0 1.574 1.372 2.809 3.049 2.255 3.061 3.523 6.243 2.488 6.243-0.304 0-0.682-0.588-0.84-1.307-0.159-0.719-0.218 0.523-0.131 2.759 0.086 2.235 0.44 4.751 0.787 5.589 0.908 2.199 2.99 1.629 4.662-1.276 1.647-2.863 2.707-2.994 2.267-0.282-0.397 2.442-2.619 7.599-3.078 7.14-0.182-0.182 0.213-1.562 0.879-3.067 1.442-3.26 1.531-3.886 0.306-2.136-0.515 0.735-1.515 1.291-2.323 1.291-1.718 0-1.748 0.324-0.256 2.772 0.638 1.046 1.161 2.483 1.163 3.194 0.002 1.213 0.089 1.186 1.412-0.45 1.251-1.547 1.506-1.644 2.275-0.871 0.477 0.479 0.952 1.786 1.056 2.904 0.153 1.644-0.005 2.017-0.826 1.952-0.661-0.053-1.017 0.332-1.017 1.097 0 0.648 0.458 1.522 1.017 1.942 1.412 1.06 2.457-0.403 2.502-3.505zm-2.648 1.998c0.198-0.319 0.621-0.58 0.94-0.58s0.419 0.261 0.222 0.58c-0.198 0.32-0.62 0.581-0.94 0.581-0.319 0-0.419-0.261-0.222-0.581zm12.2 1.743c-0.2-0.32-0.62-0.581-0.94-0.581s-0.42 0.261-0.23 0.581c0.2 0.319 0.62 0.58 0.94 0.58s0.42-0.261 0.23-0.58zm-33.396-7.506c0-0.16-1.307 0.996-2.904 2.569s-2.903 2.991-2.903 3.151c0 0.159 1.306-0.997 2.903-2.57s2.904-2.991 2.904-3.15zm21.478 2.424c-0.005-0.559-0.256-1.406-0.557-1.882-0.788-1.247-1.985 0.106-1.485 1.679 0.467 1.473 2.054 1.631 2.042 0.203zm37.258-5.252c-0.14-3.966-1.74-11.932-2.71-13.506-0.2-0.318-1.25-3.075-2.35-6.127-2.52-7.069-5.07-10.854-9.25-13.732-1.43-0.982-1.35-0.826 0.43 0.857 1.2 1.131 2.18 2.474 2.18 2.984 0 0.509 0.88 2.304 1.95 3.987 2.58 4.039 4.11 7.055 3.34 6.582-0.34-0.209-1.56-2.067-2.71-4.129-2.32-4.156-2.96-4.812-1.67-1.716 0.47 1.118 0.72 2.032 0.56 2.032-0.58 0-2.63-4.65-2.63-5.984 0-1.845-1.52-3.116-4.35-3.633-1.28-0.233-2.95-0.908-3.71-1.501-1.77-1.378-2.2-1.354-3.01 0.163-0.62 1.144-0.55 1.212 0.81 0.869 0.81-0.204 1.64-0.109 1.84 0.212 0.22 0.349-0.49 0.583-1.78 0.583-1.75 0-2.08-0.181-1.84-1.017 0.78-2.777 0.79-2.759-1.62-2.717-1.56 0.027-3.991 0.882-7.263 2.556-2.705 1.384-7.27 3.505-10.145 4.713-4.797 2.016-11.917 7.099-11.096 7.92 0.161 0.161 2.758-1.037 5.772-2.662 3.013-1.624 8.555-4.143 12.316-5.596 3.979-1.538 7.394-3.243 8.17-4.081 0.736-0.792 1.736-1.439 2.236-1.439 1.27 0 1.12 0.442-0.65 1.961l-1.535 1.325 6.825 0.065c3.76 0.035 6.98 0.215 7.17 0.399 0.18 0.184 0.05 0.616-0.29 0.959-0.69 0.686 0.82 2.987 7.32 11.179 3.95 4.976 5.86 9.263 5.86 13.123 0 2.862 1.29 10.553 1.69 10.144 0.17-0.163 0.23-2.311 0.14-4.773zm-27.67-1.117c1.16-0.336 1.16-0.336 0-0.79-2.085-0.816-5.901-0.623-5.901 0.298 0 0.872 3.563 1.17 5.901 0.492zm-47.126-4.519l0.39-1.743-0.855 1.452c-0.471 0.799-0.842 2.236-0.826 3.194 0.028 1.688 0.043 1.697 0.466 0.291 0.24-0.799 0.611-2.236 0.825-3.194zm10.781-6.679c0.751-1.503 3.69-4.906 6.922-8.014 5.57-5.356 5.798-6.384 0.582-2.622-5.174 3.731-8.847 9.343-10.652 16.271-1.304 5.009-0.989 5.648 0.515 1.044 0.731-2.236 1.915-5.241 2.633-6.679zm21.368 3.92c-0.138-0.718-0.251-0.13-0.251 1.307s0.113 2.025 0.251 1.306c0.139-0.718 0.139-1.894 0-2.613zm38.247-3.481c-0.82-1.678-1.37-2.66-1.23-2.181 1.77 5.94 2.38 7.473 2.54 6.427 0.1-0.657-0.49-2.567-1.31-4.246zm-37.676-2.036c-0.146-0.559-0.265-0.101-0.265 1.017 0 1.117 0.119 1.575 0.265 1.016 0.147-0.559 0.147-1.474 0-2.033zm-1.386-7.694c0.423-3.355-0.495-1.765-1.005 1.742-0.242 1.662-0.188 2.296 0.148 1.742 0.29-0.479 0.676-2.047 0.857-3.484zm34.672-9.907c0-0.338-0.29-0.436-0.65-0.218-0.43 0.27-0.52-0.046-0.26-0.982 0.32-1.171 0.28-1.225-0.26-0.358-0.66 1.054-0.34 2.173 0.62 2.173 0.3 0 0.55-0.277 0.55-0.615zm-1.75-2.288c0.35-0.639 0.49-1.162 0.34-1.162-0.16 0-0.57 0.523-0.92 1.162-0.34 0.638-0.49 1.161-0.33 1.161s0.57-0.523 0.91-1.161zm-6.69-0.515c-0.63-0.603-2.19-1.257-3.47-1.455l-2.32-0.359 2.61 1.429c3.25 1.774 4.83 1.966 3.18 0.385zm-29.444-2.057c5.152-2.023 10.699-4.392 11.094-4.738 0.12-0.105-0.461-0.997-1.291-1.983s-2.005-2.916-2.612-4.289c-1.389-3.138-4.165-5.217-6.508-4.873-1.603 0.235-2.433-0.372-1.11-0.813 0.33-0.11-0.724-0.197-2.344-0.193-3.127 0.007-4.14 0.754-3.635 2.684 0.158 0.603-0.005 1.097-0.362 1.097-0.356 0-0.648-0.377-0.648-0.838s-0.573-1.239-1.272-1.729-1.098-1.065-0.885-1.277c0.213-0.213 0.782-0.059 1.265 0.342 0.716 0.595 0.942 0.563 1.224-0.173 0.191-0.497 0.259-1.357 0.152-1.912-0.182-0.944-0.256-0.946-1.169-0.034-1.335 1.335-1.638 1.23-1.638-0.567 0-1.413-0.085-1.469-1.016-0.669-1.785 1.533-2.863 1.574-4.907 0.185-2.256-1.533-6.566-2.854-7.785-2.386-0.506 0.194-0.81 1.181-0.81 2.625v2.315l1.425-1.425c0.784-0.784 1.939-1.426 2.566-1.426s1.554-0.158 2.059-0.352 0.918-0.063 0.918 0.29c0 0.354-0.795 0.643-1.768 0.643-2.144 0-4.909 2.474-4.361 3.902 0.2 0.52 0.503 2.403 0.674 4.184 0.429 4.466 0.725 5.27 1.458 3.964 0.314-0.559 0.965-1.016 1.447-1.016s0.713-0.266 0.512-0.59c-0.201-0.325-0.608-0.44-0.905-0.257-0.298 0.184-0.541 0.058-0.541-0.28 0-0.339 0.253-0.615 0.563-0.615 0.309 0 0.404-0.458 0.212-1.017-0.285-0.825-0.176-0.798 0.58 0.146 1.181 1.473 1.233 3.193 0.097 3.193-0.479 0-0.871 0.255-0.871 0.567 0 0.323 0.772 0.412 1.801 0.206 2.176-0.435 3.659 1.051 1.564 1.566-0.686 0.169-1.374 0.692-1.529 1.162-0.242 0.731-0.143 0.74 0.683 0.058 0.868-0.717 0.965-0.59 0.965 1.272 0 2.614 0.746 3.078 2.763 1.718 0.876-0.59 2.345-1.453 3.265-1.917 1.811-0.913 2.953-3.011 3.629-6.664 0.301-1.631 0.494-1.947 0.647-1.061 0.629 3.642-1.624 7.121-6.244 9.645-2.541 1.387-1.954 1.737 1.627 0.97 2.531-0.543 3.108-0.933 4.043-2.735 0.6-1.156 1.46-2.225 1.913-2.376 0.568-0.19 0.512 0.036-0.183 0.731-0.553 0.553-1.164 1.64-1.359 2.416-0.428 1.705 0.15 4.315 0.956 4.315 0.321 0 2.864-0.896 5.651-1.991zm-20.402-14.56c-0.184-0.479-0.763-0.871-1.286-0.871-0.629 0-0.832-0.311-0.599-0.919 0.194-0.505 0.353-1.13 0.353-1.389 0-0.908 1.836-1.164 3.204-0.447 1.338 0.701 1.353 0.783 0.468 2.61-0.999 2.062-1.625 2.36-2.14 1.016zm25.033-1.521c-0.88-0.656-1.471-1.402-1.313-1.658 0.158-0.255-0.153-0.82-0.69-1.256-0.671-0.544-0.839-0.565-0.54-0.065 0.24 0.399 0.282 0.725 0.093 0.725-0.763 0-6.208-3.002-5.937-3.273 0.161-0.161 1.39 0.268 2.732 0.953 1.342 0.684 2.295 1.009 2.117 0.722-0.178-0.288-1.391-1.004-2.695-1.592-1.72-0.776-2.167-1.215-1.625-1.597 0.572-0.404 0.543-0.473-0.124-0.293-0.479 0.128-0.952 0.908-1.05 1.733-0.148 1.242 0.11 1.562 1.503 1.868 0.925 0.203 3.227 1.395 5.115 2.65 3.659 2.431 5.068 3.063 2.414 1.083zm3.052-0.87c0-0.16-0.241-0.142-0.534 0.039-0.294 0.182-0.851-0.652-1.238-1.853-0.386-1.2-0.935-2.476-1.218-2.835-0.623-0.789-0.006-2.667 0.727-2.214 0.658 0.407 0.669 0.493-0.356-2.885-0.96-3.164-2.634-5.6509-6.614-9.8287-3.1-3.2527-5.156-4.4728-7.434-4.4109l-1.626 0.0442 1.845 0.6817c1.016 0.375 2.061 0.9194 2.323 1.2098 0.283 0.3132 0.005 0.3437-0.684 0.0749-2.304-0.8992-6.506-1.0604-6.996-0.2683-0.276 0.447-0.188 0.8518 0.215 0.9861 1.439 0.4797 0.596 1.0491-1.236 0.8352-1.212-0.1416-2.181 0.0903-2.628 0.6292-0.601 0.7236-0.29 0.916 2.042 1.2657 4.027 0.6039 8.298 2.3519 10.811 4.4251 1.214 1.001 2.074 1.954 1.912 2.116-0.163 0.163-1.087-0.37-2.054-1.183-1.963-1.652-7.954-4.0899-8.787-3.5753-0.296 0.1829-0.538 0.0237-0.538-0.3536 0-0.484-0.289-0.4513-0.983 0.1109-0.667 0.5416-0.842 0.5643-0.546 0.0711 0.24-0.3992 0.187-0.7259-0.117-0.7259s-0.708 0.4047-0.898 0.8994c-0.284 0.7405 0.064 0.8585 1.971 0.6678 1.273-0.1273 2.315-0.0176 2.315 0.2438 0 0.2615 0.435 0.3086 0.967 0.1046 0.706-0.271 0.836-0.1613 0.485 0.4073-0.351 0.5689-0.221 0.6779 0.485 0.4069 0.532-0.2036 0.967-0.1255 0.967 0.174 0 0.299 0.435 0.377 0.966 0.173 0.617-0.236 0.825-0.142 0.576 0.262-0.235 0.38 0.306 0.785 1.356 1.016 0.961 0.211 1.756 0.558 1.766 0.773 0.01 0.214 0.658 0.855 1.441 1.424 1.364 0.993 1.407 0.993 1.044 0-0.335-0.919-0.229-0.905 0.953 0.127 1.42 1.239 5.607 7.15 6.247 8.818 0.58 1.511 2.056 3.065 2.595 2.732 0.263-0.162 0.478-0.426 0.478-0.585zm-6.122-8.89c-1.217-1.595-2.558-3.033-2.981-3.196-0.424-0.162-0.77-0.616-0.77-1.008s0.929 0.188 2.065 1.289c1.136 1.1 2.243 1.87 2.46 1.711 0.218-0.16 0.492 0.232 0.611 0.871 0.119 0.638 0.486 1.494 0.817 1.901 0.33 0.407 0.468 0.873 0.305 1.036s-1.291-1.009-2.507-2.604zm1.871-0.939c-0.564-1.183-0.903-2.274-0.753-2.424 0.39-0.39 2.209 3.282 1.975 3.987-0.108 0.323-0.658-0.381-1.222-1.563zm-5.094-4.398c-2.609-2.62-4.035-3.5272-7.259-4.6174-2.207-0.7461-3.595-1.446-3.085-1.5552 2.863-0.6135 11.517 4.6493 13.385 8.1406 0.991 1.851 0.345 1.433-3.041-1.968zm-1.399-4.9112c-1.597-1.4475-2.381-2.3782-1.742-2.0682 1.087 0.5277 5.47 4.7382 4.905 4.7121-0.143-0.0066-1.566-1.1963-3.163-2.6439zm11.675 16.75c-0.193-0.193-0.33 0.15-0.305 0.762 0.028 0.677 0.166 0.815 0.351 0.351 0.168-0.419 0.147-0.92-0.046-1.113zm-4.997-0.427c0-0.148-0.588-0.555-1.306-0.903-1.255-0.608-1.262-0.597-0.18 0.27 1.185 0.949 1.486 1.077 1.486 0.633zm6.159-1.315c-0.193-0.193-0.331 0.15-0.305 0.762 0.027 0.677 0.165 0.814 0.35 0.351 0.168-0.419 0.148-0.92-0.045-1.113zm-1.61-0.768c-0.34-0.974-0.726-1.664-0.857-1.532-0.288 0.288 0.808 3.304 1.2 3.304 0.151 0-0.003-0.797-0.343-1.772zm-7.804-0.069c-0.293-0.474-0.084-0.551 0.692-0.256 0.802 0.306 0.936 0.247 0.483-0.21-0.346-0.349-1.087-0.459-1.646-0.244-0.804 0.308-0.855 0.493-0.242 0.881 1.052 0.667 1.208 0.63 0.713-0.171zm-17.542-0.298c-0.419-0.167-0.92-0.147-1.113 0.046s0.15 0.33 0.762 0.305c0.677-0.028 0.815-0.165 0.351-0.351zm9.755-0.781c-0.347-0.647-0.879-1.024-1.182-0.836-0.871 0.538-0.645 1.324 0.465 1.614 0.559 0.146 1.091 0.296 1.182 0.333s-0.118-0.463-0.465-1.111zm1.751 0.662c0-0.284-0.527-1.134-1.17-1.888l-1.17-1.371 1.025 1.884c1.074 1.976 1.315 2.227 1.315 1.375zm16.212-1.316c-0.697-1.302-0.888-2.181-1.318-6.056-0.325-2.9337-2.828-7.2792-5.022-8.7188-1.124-0.7379-3.459-1.5114-5.226-1.7311l-3.194-0.3973 3.346 3.302c1.841 1.8161 3.799 4.0063 4.352 4.8671 0.553 0.8611 2.379 3.3561 4.058 5.5451s3.052 4.258 3.052 4.597c0 0.34 0.152 0.466 0.338 0.28 0.185-0.185 0.012-0.945-0.386-1.688zm-24.681 0.298c0.318-0.83 0.232-0.851-0.664-0.164-0.566 0.434-1.139 0.863-1.272 0.953s0.166 0.164 0.664 0.164 1.07-0.429 1.272-0.953zm4.627-1.37c0.563-0.756 0.515-0.766-0.368-0.074-0.559 0.439-0.996 1.223-0.971 1.743 0.039 0.79 0.099 0.802 0.369 0.074 0.177-0.479 0.614-1.263 0.97-1.743zm18.377 1.194c-0.332-0.621-0.891-1.306-1.242-1.523s-0.189 0.291 0.36 1.129c1.163 1.774 1.765 2.043 0.882 0.394zm-10.146-0.341c-0.62-0.469-1.403-0.843-1.742-0.832-0.338 0.011 0.039 0.394 0.837 0.851 1.881 1.075 2.339 1.066 0.905-0.019zm-14.336-0.214c0.438-0.277 0.7-0.741 0.581-1.031s-0.673-0.059-1.232 0.513c-1.067 1.092-0.707 1.379 0.651 0.518zm-9.494-1.197c-0.391-0.633 1.72-1.035 4.754-0.907 1.575 0.067 2.55-0.171 2.74-0.667 0.338-0.881-1.16-1.064-1.69-0.208-0.191 0.31-1.644 0.473-3.228 0.362s-2.9-0.038-2.924 0.163c-0.025 0.2-0.132 0.822-0.24 1.383-0.107 0.56 0.048 0.869 0.345 0.685 0.296-0.183 0.406-0.548 0.243-0.811zm2.259 0.788c0.503-0.193 0.777-0.574 0.609-0.846-0.371-0.6-2.01-0.047-2.01 0.679 0 0.612 0.183 0.634 1.401 0.167zm4.696-0.23c1.12-0.481 1.116-0.5-0.111-0.539-0.699-0.023-1.433 0.22-1.631 0.539-0.424 0.687 0.144 0.687 1.742 0zm18.293 0.332c0-0.137-1.16-1.032-2.578-1.989-1.508-1.018-2.443-1.387-2.253-0.89 0.18 0.467 1.275 1.351 2.434 1.964 2.363 1.248 2.397 1.261 2.397 0.915zm13.09-3.196c-0.21-0.341-0.66-0.62-1-0.62-0.385 0-0.341 0.333 0.117 0.885 0.796 0.96 1.508 0.746 0.883-0.265zm2.457 0.07c0.348-1.045-0.852-0.826-1.257 0.23-0.217 0.565-0.088 0.831 0.337 0.689 0.379-0.126 0.793-0.54 0.92-0.919zm-35.872-0.434c0-0.141-0.408-0.256-0.906-0.256s-0.741 0.266-0.54 0.59c0.331 0.537 1.446 0.279 1.446-0.334zm6.968-0.256c0-0.319-0.261-0.581-0.58-0.581-0.32 0-0.581 0.262-0.581 0.581 0 0.32 0.261 0.581 0.581 0.581 0.319 0 0.58-0.261 0.58-0.581zm-1.806-0.794c0.532-0.641 0.238-0.863-1.526-1.155-3.635-0.601-6.359-0.421-7.098 0.47-0.598 0.72-0.123 0.873 3.268 1.047 2.183 0.113 4.132 0.256 4.333 0.318 0.2 0.063 0.661-0.243 1.023-0.68zm6.177-0.255c-0.179-0.179-0.647-0.001-1.041 0.396-0.569 0.574-0.503 0.641 0.325 0.325 0.573-0.218 0.895-0.542 0.716-0.721zm-2.155-1.616c-2.28-1.1941-10.826-1.9302-11.599-0.999-0.507 0.612 0.037 0.767 2.779 0.793 1.876 0.018 4.325 0.353 5.443 0.745 1.118 0.391 2.659 0.6 3.425 0.464l1.392-0.248-1.44-0.755zm24.498 0.598c0-0.141-0.262-0.256-0.581-0.256s-0.581 0.277-0.581 0.615c0 0.339 0.262 0.454 0.581 0.256 0.319-0.197 0.581-0.474 0.581-0.615zm2.323 0.106c0-0.44-0.36-1.098-0.799-1.463-0.641-0.5324-0.798-0.3752-0.798 0.8 0 0.854 0.332 1.463 0.798 1.463 0.439 0 0.799-0.36 0.799-0.8zm-3.844-1.8437c0.198-0.5168 0.101-0.7499-0.228-0.5465-0.316 0.1952-0.574 0.6007-0.574 0.9012 0 0.835 0.416 0.651 0.802-0.3547zm1.959-1.5668c-0.131-0.3993-0.872-0.8118-1.645-0.9168-1.377-0.187-1.383-0.1724-0.245 0.7074 1.417 1.096 2.211 1.1839 1.89 0.2094zm-31.471-0.5688c0.199-0.1982-0.048-0.3004-0.547-0.2272-0.499 0.0733-1.069 0.2954-1.268 0.4936-0.198 0.1982 0.048 0.3005 0.548 0.2272 0.499-0.0733 1.069-0.2954 1.267-0.4936zm28.129 0.1675c0-0.7882-1.025-1.3061-1.396-0.7055-0.347 0.5616 0.156 1.2519 0.912 1.2519 0.266 0 0.484-0.2459 0.484-0.5464zm0.581-1.7765c0-0.3194-0.719-0.5546-1.597-0.5228l-1.597 0.0579 1.452 0.4649c0.798 0.2558 1.517 0.491 1.597 0.5229 0.08 0.0318 0.145-0.2035 0.145-0.5229zm-26.225 301.98c-0.211-0.8-0.262-3.93-0.113-6.97 0.149-3.03 0.274-5.94 0.279-6.46 0.008-0.8 0.78-0.94 5.158-0.9 2.832 0.02 5.015 0.26 4.851 0.52-0.164 0.27-0.605 0.45-0.98 0.4s-2.259-0.05-4.186-0.01l-3.503 0.06 0.084 3.92c0.06 2.78-0.016 3.25-0.259 1.6-0.254-1.72-0.422-0.81-0.646 3.49-0.181 3.48-0.455 5.22-0.685 4.35zm-1.963-5.08c-0.012-2.16-0.143-4.63-0.29-5.49s-0.007-1.65 0.313-1.74c0.35-0.11 0.655 2.07 0.768 5.49 0.103 3.11-0.028 5.66-0.291 5.66-0.262 0-0.487-1.76-0.5-3.92zm-22.045 0.92l-5.226-1.8 0.179-6.89c0.104-4 0.419-6.89 0.749-6.89 0.356 0 0.451 2.36 0.253 6.31-0.234 4.69-0.127 6.46 0.413 6.89 0.401 0.32 2.885 1.29 5.52 2.16 2.635 0.86 4.791 1.68 4.791 1.82 0 0.52-1.673 0.12-6.679-1.6zm25.262 0.1c0-0.32 0.261-0.58 0.58-0.58 0.32 0 0.581 0.26 0.581 0.58s-0.261 0.58-0.581 0.58c-0.319 0-0.58-0.26-0.58-0.58zm2.368-1.41c-0.025-0.61 0.113-0.95 0.305-0.76 0.193 0.19 0.214 0.69 0.046 1.11-0.185 0.47-0.323 0.33-0.351-0.35zm-1.115-1.5c0-0.8 0.132-1.12 0.293-0.72s0.161 1.05 0 1.45-0.293 0.07-0.293-0.73zm1.115-0.82c-0.025-0.61 0.113-0.96 0.305-0.76 0.193 0.19 0.214 0.69 0.046 1.11-0.185 0.46-0.323 0.33-0.351-0.35zm12.776-1.74c-0.025-0.61 0.112-0.96 0.305-0.76 0.193 0.19 0.214 0.69 0.046 1.11-0.185 0.46-0.323 0.32-0.351-0.35zm-11.66-2.66c0-0.32 0.115-0.58 0.256-0.58s0.418 0.26 0.615 0.58c0.198 0.32 0.082 0.58-0.256 0.58s-0.615-0.26-0.615-0.58zm6.824-1.55c0.399-0.16 1.052-0.16 1.451 0 0.4 0.16 0.073 0.29-0.726 0.29-0.798 0-1.125-0.13-0.725-0.29zm1.059-10.57c-1.314-2.54-1.123-3.04 0.281-0.74 0.654 1.07 1.065 2.08 0.911 2.23-0.153 0.16-0.69-0.51-1.192-1.49zm49.031-4.4c0-0.61 1.11-0.87 1.44-0.33 0.2 0.32-0.04 0.59-0.54 0.59s-0.9-0.12-0.9-0.26zm-67.738-13.1c0-3.04 0.098-4.28 0.217-2.76 0.12 1.52 0.12 4 0 5.52-0.119 1.51-0.217 0.27-0.217-2.76zm-2.672-12.92c-0.139-1.68-0.305-7.7-0.37-13.37-0.065-5.68-0.266-10.71-0.447-11.18s-0.04-0.86 0.314-0.86c0.412 0 0.653 1.62 0.671 4.5 0.016 2.48 0.169 8.88 0.34 14.23s0.184 9.73 0.027 9.73c-0.156 0-0.397-1.38-0.535-3.05zm-1.022-27.15c0-0.64 0.261-1.16 0.581-1.16 0.319 0 0.58 0.52 0.58 1.16s-0.261 1.16-0.58 1.16c-0.32 0-0.581-0.52-0.581-1.16zm27.875-97.16c0-0.79 4.241-8.55 4.52-8.27 0.149 0.15-0.448 1.65-1.329 3.34-1.776 3.41-3.191 5.6-3.191 4.93zm-63.009-19.57c-0.197-0.32-0.082-0.58 0.256-0.58 0.339 0 0.615 0.26 0.615 0.58s-0.115 0.58-0.256 0.58-0.417-0.26-0.615-0.58z"/>
  <metadata>
    <rdf:RDF>
      <cc:Work>
        <dc:format>image/svg+xml</dc:format>
        <dc:type rdf:resource="http://purl.org/dc/dcmitype/StillImage"/>
        <cc:license rdf:resource="http://creativecommons.org/licenses/publicdomain/"/>
        <dc:publisher>
          <cc:Agent rdf:about="http://openclipart.org/">
            <dc:title>Openclipart</dc:title>
          </cc:Agent>
        </dc:publisher>
        <dc:title>Hygieia</dc:title>
        <dc:date>2009-03-20T20:34:40</dc:date>
        <dc:description>Source: http://commons.wikimedia.org/wiki/File:Hygieia.png This PD image comes from Meyers Konversationslexikon (1885-90. It was uploaded to Wikimedia Commons by user Magnus Manske.</dc:description>
        <dc:source>http://openclipart.org/detail/22684/hygieia-by-warszawianka</dc:source>
        <dc:creator>
          <cc:Agent>
            <dc:title>warszawianka</dc:title>
          </cc:Agent>
        </dc:creator>
        <dc:subject>
          <rdf:Bag>
            <rdf:li>ancient</rdf:li>
            <rdf:li>art</rdf:li>
            <rdf:li>clip art</rdf:li>
            <rdf:li>clipart</rdf:li>
            <rdf:li>externalsource</rdf:li>
            <rdf:li>greek</rdf:li>
            <rdf:li>health</rdf:li>
            <rdf:li>image</rdf:li>
            <rdf:li>media</rdf:li>
            <rdf:li>meyers</rdf:li>
            <rdf:li>mythology</rdf:li>
            <rdf:li>png</rdf:li>
            <rdf:li>public domain</rdf:li>
            <rdf:li>sculpture</rdf:li>
            <rdf:li>statue</rdf:li>
            <rdf:li>svg</rdf:li>
            <rdf:li>wikimedia commons</rdf:li>
          </rdf:Bag>
        </dc:subject>
      </cc:Work>
      <cc:License rdf:about="http://creativecommons.org/licenses/publicdomain/">
        <cc:permits rdf:resource="http://creativecommons.org/ns#Reproduction"/>
        <cc:permits rdf:resource="http://creativecommons.org/ns#Distribution"/>
        <cc:permits rdf:resource="http://creativecommons.org/ns#DerivativeWorks"/>
      </cc:License>
    </rdf:RDF>
  </metadata>
</svg>
